<svg id="Layer_1" data-name="Layer 1" xmlns="http://www.w3.org/2000/svg" viewBox="0 0 792 612"><defs><style>.cls-1{fill:#b8c0e8;}.cls-2{fill:none;}.cls-3{fill:#ff002c;}.cls-4{fill:#f0f0f8;}.cls-5{fill:#fff;}</style></defs><path class="cls-1" d="M225.7,174.09a3.71,3.71,0,0,1,1.72-5h0a3.71,3.71,0,0,1,5,1.73h0a3.71,3.71,0,0,1-1.72,4.95h0a3.71,3.71,0,0,1-1.61.37h0A3.7,3.7,0,0,1,225.7,174.09Z"/><path class="cls-1" d="M370,175.74h0a4.24,4.24,0,0,1-2-5.66h0a4.24,4.24,0,0,1,5.66-2h0a4.23,4.23,0,0,1,2,5.65h0a4.25,4.25,0,0,1-3.83,2.41h0A4.29,4.29,0,0,1,370,175.74Z"/><path class="cls-1" d="M237.41,168.14a4.24,4.24,0,0,1,2.42-5.47h0a4.23,4.23,0,0,1,5.46,2.42h0a4.21,4.21,0,0,1-2.42,5.45h0a4.27,4.27,0,0,1-1.52.29h0A4.24,4.24,0,0,1,237.41,168.14Z"/><path class="cls-1" d="M358,170.53a4.39,4.39,0,0,1-2.53-5.67h0a4.4,4.4,0,0,1,5.68-2.53h0a4.4,4.4,0,0,1,2.53,5.68h0a4.41,4.41,0,0,1-4.11,2.82h0A4.33,4.33,0,0,1,358,170.53Z"/><path class="cls-1" d="M345.6,166.35a4.31,4.31,0,0,1-2.93-5.36h0a4.32,4.32,0,0,1,5.36-2.93h0a4.32,4.32,0,0,1,2.93,5.36h0a4.32,4.32,0,0,1-4.14,3.11h0A4.24,4.24,0,0,1,345.6,166.35Z"/><path class="cls-1" d="M249.83,164.05a4.42,4.42,0,0,1,3-5.48h0a4.41,4.41,0,0,1,5.48,3h0a4.42,4.42,0,0,1-3,5.48h0a4.51,4.51,0,0,1-1.25.19h0A4.44,4.44,0,0,1,249.83,164.05Z"/><path class="cls-1" d="M333,163.2h0a3.7,3.7,0,0,1-2.88-4.38h0a3.7,3.7,0,0,1,4.37-2.88h0a3.7,3.7,0,0,1,2.88,4.38h0a3.7,3.7,0,0,1-3.62,3h0A4,4,0,0,1,333,163.2Z"/><path class="cls-1" d="M263.46,160.29a3.71,3.71,0,0,1,2.87-4.39h0a3.71,3.71,0,0,1,4.38,2.88h0a3.7,3.7,0,0,1-2.87,4.38h0a4,4,0,0,1-.76.08h0A3.7,3.7,0,0,1,263.46,160.29Z"/><path class="cls-1" d="M320.08,161.06a3.71,3.71,0,0,1-3.23-4.14h0a3.7,3.7,0,0,1,4.14-3.21h0a3.7,3.7,0,0,1,3.22,4.13h0a3.71,3.71,0,0,1-3.67,3.25h0A3.44,3.44,0,0,1,320.08,161.06Z"/><path class="cls-1" d="M276.65,157.79a3.7,3.7,0,0,1,3.23-4.12h0a3.71,3.71,0,0,1,4.13,3.22h0a3.7,3.7,0,0,1-3.22,4.13h0a3.62,3.62,0,0,1-.46,0h0A3.72,3.72,0,0,1,276.65,157.79Z"/><path class="cls-1" d="M307,160h0a3.7,3.7,0,0,1-3.55-3.85h0a3.71,3.71,0,0,1,3.87-3.55h0a3.69,3.69,0,0,1,3.54,3.85h0a3.72,3.72,0,0,1-3.7,3.56H307Z"/><path class="cls-1" d="M290,156.4a3.7,3.7,0,0,1,3.55-3.85h0a3.71,3.71,0,0,1,3.85,3.56h0a3.71,3.71,0,0,1-3.56,3.85h-.15A3.69,3.69,0,0,1,290,156.4Z"/><path class="cls-1" d="M195.29,173.6a3.22,3.22,0,0,1,.8-4.51h0a3.22,3.22,0,0,1,4.51.8h0a3.23,3.23,0,0,1-.8,4.51h0A3.18,3.18,0,0,1,198,175h0A3.24,3.24,0,0,1,195.29,173.6Z"/><path class="cls-1" d="M399.45,173.5a3.23,3.23,0,0,1-.88-4.49h0a3.23,3.23,0,0,1,4.5-.89h0a3.24,3.24,0,0,1,.87,4.51h0a3.22,3.22,0,0,1-2.68,1.43h0A3.19,3.19,0,0,1,399.45,173.5Z"/><path class="cls-1" d="M206.56,166a3.24,3.24,0,0,1,1.13-4.45h0a3.23,3.23,0,0,1,4.43,1.13h0a3.24,3.24,0,0,1-1.13,4.45h0a3.16,3.16,0,0,1-1.65.45h0A3.21,3.21,0,0,1,206.56,166Z"/><path class="cls-1" d="M388.13,166.47a3.24,3.24,0,0,1-1.23-4.42h0a3.26,3.26,0,0,1,4.43-1.22h0a3.26,3.26,0,0,1,1.22,4.43h0a3.26,3.26,0,0,1-2.83,1.63h0A3.16,3.16,0,0,1,388.13,166.47Z"/><path class="cls-1" d="M218.35,159.33a3.23,3.23,0,0,1,1.47-4.34h0a3.24,3.24,0,0,1,4.34,1.46h0a3.25,3.25,0,0,1-1.46,4.35h0a3.31,3.31,0,0,1-1.45.34h0A3.25,3.25,0,0,1,218.35,159.33Z"/><path class="cls-1" d="M376.3,160.32a3.25,3.25,0,0,1-1.54-4.32h0a3.23,3.23,0,0,1,4.31-1.54h0a3.23,3.23,0,0,1,1.55,4.32h0a3.24,3.24,0,0,1-2.93,1.86h0A3.14,3.14,0,0,1,376.3,160.32Z"/><path class="cls-1" d="M230.62,153.54a3.25,3.25,0,0,1,1.79-4.23h0a3.23,3.23,0,0,1,4.22,1.78h0a3.25,3.25,0,0,1-1.78,4.23h0a3.09,3.09,0,0,1-1.22.24h0A3.25,3.25,0,0,1,230.62,153.54Z"/><path class="cls-1" d="M364.05,155.09a3.25,3.25,0,0,1-1.87-4.19h0a3.25,3.25,0,0,1,4.2-1.87h0a3.24,3.24,0,0,1,1.86,4.19h0a3.25,3.25,0,0,1-3,2.08h0A3.35,3.35,0,0,1,364.05,155.09Z"/><path class="cls-1" d="M244.23,148.67a3.23,3.23,0,0,1,2.08-4h0a3.23,3.23,0,0,1,4.07,2.08h0a3.23,3.23,0,0,1-2.09,4.05h0a3.11,3.11,0,0,1-1,.16h0A3.23,3.23,0,0,1,244.23,148.67Z"/><path class="cls-1" d="M352.66,150.57a3,3,0,0,1-2-3.76h0a3,3,0,0,1,3.75-2h0a3,3,0,0,1,2,3.75h0a3,3,0,0,1-2.89,2.15h0A3,3,0,0,1,352.66,150.57Z"/><path class="cls-1" d="M256.29,145.71a3.24,3.24,0,0,1,2.4-3.91h0a3.24,3.24,0,0,1,3.9,2.4h0a3.24,3.24,0,0,1-2.39,3.91h0a3.33,3.33,0,0,1-.76.08h0A3.23,3.23,0,0,1,256.29,145.71Z"/><path class="cls-1" d="M340.66,146.22a2,2,0,0,1-1.52-2.37h0a2,2,0,0,1,2.38-1.53h0A2,2,0,0,1,343,144.7h0a2,2,0,0,1-2,1.57h0A1.63,1.63,0,0,1,340.66,146.22Z"/><path class="cls-1" d="M271.05,141.76a2.47,2.47,0,0,1,2.06-2.84h0A2.48,2.48,0,0,1,276,141h0a2.49,2.49,0,0,1-2.05,2.85h0l-.4,0h0A2.48,2.48,0,0,1,271.05,141.76Z"/><path class="cls-1" d="M326.77,143.89a2,2,0,0,1-1.74-2.33h0a2.05,2.05,0,0,1,2.33-1.75h0a2.05,2.05,0,0,1,1.74,2.34h0a2,2,0,0,1-2,1.77h0A1.53,1.53,0,0,1,326.77,143.89Z"/><path class="cls-1" d="M284.47,140.82a2,2,0,0,1,1.85-2.19h0a2,2,0,0,1,2.19,1.85h0a2,2,0,0,1-1.85,2.19h-.18A2,2,0,0,1,284.47,140.82Z"/><path class="cls-1" d="M313.25,142.66a2.24,2.24,0,0,1-2.08-2.38h0a2.23,2.23,0,0,1,2.38-2.07h0a2.23,2.23,0,0,1,2.08,2.37h0a2.24,2.24,0,0,1-2.22,2.09h-.16Z"/><path class="cls-1" d="M297.87,140.05a2.09,2.09,0,0,1,2.08-2.12h0a2.1,2.1,0,0,1,2.12,2.08h0a2.1,2.1,0,0,1-2.09,2.12h0A2.1,2.1,0,0,1,297.87,140.05Z"/><path class="cls-1" d="M326.6,176.6a4.07,4.07,0,0,1-3.29-4.72h0a4.07,4.07,0,0,1,4.73-3.3h0a4.07,4.07,0,0,1,3.28,4.73h0a4.06,4.06,0,0,1-4,3.35h0A4.37,4.37,0,0,1,326.6,176.6Z"/><path class="cls-1" d="M282.17,171.6a4.66,4.66,0,0,1,4.22-5.06h0a4.68,4.68,0,0,1,5.07,4.22h0a4.67,4.67,0,0,1-4.23,5.06h0l-.42,0h0A4.65,4.65,0,0,1,282.17,171.6Z"/><path class="cls-1" d="M313.26,175.4h0a4.23,4.23,0,0,1-3.84-4.61h0a4.23,4.23,0,0,1,4.6-3.86h0a4.26,4.26,0,0,1,3.85,4.62h0a4.24,4.24,0,0,1-4.23,3.87h0Z"/><path class="cls-1" d="M295.53,170.57a4.71,4.71,0,0,1,4.7-4.7h0a4.7,4.7,0,0,1,4.69,4.7h0a4.69,4.69,0,0,1-4.69,4.7h0A4.69,4.69,0,0,1,295.53,170.57Z"/><path class="cls-1" d="M428.07,175.4a3.25,3.25,0,0,1-.32-4.58h0a3.25,3.25,0,0,1,4.58-.33h0a3.25,3.25,0,0,1,.31,4.58h0a3.25,3.25,0,0,1-2.44,1.11h0A3.32,3.32,0,0,1,428.07,175.4Z"/><path class="cls-1" d="M178.3,167.54a3.25,3.25,0,0,1,.54-4.56h0a3.26,3.26,0,0,1,4.56.55h0a3.25,3.25,0,0,1-.54,4.56h0a3.33,3.33,0,0,1-2,.69h0A3.22,3.22,0,0,1,178.3,167.54Z"/><path class="cls-1" d="M417.66,167.1a3.25,3.25,0,0,1-.64-4.55h0a3.24,3.24,0,0,1,4.55-.63h0a3.25,3.25,0,0,1,.63,4.54h0a3.25,3.25,0,0,1-2.6,1.28h0A3.27,3.27,0,0,1,417.66,167.1Z"/><path class="cls-1" d="M189.74,158.81a2.82,2.82,0,0,1,.74-3.92h0a2.82,2.82,0,0,1,3.92.75h0a2.82,2.82,0,0,1-.74,3.92h0a2.82,2.82,0,0,1-1.59.48h0A2.81,2.81,0,0,1,189.74,158.81Z"/><path class="cls-1" d="M407.33,159.05a2.88,2.88,0,0,1-.85-4h0a2.88,2.88,0,0,1,4-.85h0a2.88,2.88,0,0,1,.84,4h0a2.87,2.87,0,0,1-2.42,1.31h0A2.9,2.9,0,0,1,407.33,159.05Z"/><path class="cls-1" d="M201.22,151.7a2.68,2.68,0,0,1,1-3.67h0a2.69,2.69,0,0,1,3.67,1h0a2.67,2.67,0,0,1-1,3.66h0a2.6,2.6,0,0,1-1.34.36h0A2.69,2.69,0,0,1,201.22,151.7Z"/><path class="cls-1" d="M396,151.46a2.4,2.4,0,0,1-.93-3.26h0a2.4,2.4,0,0,1,3.26-.92h0a2.4,2.4,0,0,1,.93,3.26h0a2.39,2.39,0,0,1-2.09,1.22h0A2.45,2.45,0,0,1,396,151.46Z"/><path class="cls-1" d="M213.26,145.06a2.26,2.26,0,0,1,1-3h0a2.27,2.27,0,0,1,3,1h0a2.27,2.27,0,0,1-1,3h0a2.39,2.39,0,0,1-1,.23h0A2.29,2.29,0,0,1,213.26,145.06Z"/><path class="cls-1" d="M385,145.42a1.79,1.79,0,0,1-.86-2.39h0a1.79,1.79,0,0,1,2.38-.86h0a1.8,1.8,0,0,1,.87,2.39h0a1.81,1.81,0,0,1-1.63,1h0A1.83,1.83,0,0,1,385,145.42Z"/><path class="cls-1" d="M225.62,139.5a2.68,2.68,0,0,1,1.46-3.49h0a2.66,2.66,0,0,1,3.49,1.46h0a2.67,2.67,0,0,1-1.46,3.49h0a2.6,2.6,0,0,1-1,.2h0A2.67,2.67,0,0,1,225.62,139.5Z"/><path class="cls-1" d="M372.13,140.12a2.18,2.18,0,0,1-1.25-2.81h0a2.18,2.18,0,0,1,2.82-1.24h0a2.18,2.18,0,0,1,1.24,2.81h0a2.19,2.19,0,0,1-2,1.39h0A2.16,2.16,0,0,1,372.13,140.12Z"/><path class="cls-1" d="M237.32,134.7a3.26,3.26,0,0,1,2.06-4.1h0a3.24,3.24,0,0,1,4.11,2.05h0a3.26,3.26,0,0,1-2.06,4.1h0a3.09,3.09,0,0,1-1,.17h0A3.28,3.28,0,0,1,237.32,134.7Z"/><path class="cls-1" d="M359.62,135.56a2.31,2.31,0,0,1-1.53-2.9h0a2.32,2.32,0,0,1,2.89-1.53h0a2.32,2.32,0,0,1,1.54,2.9h0a2.33,2.33,0,0,1-2.22,1.64h0A2,2,0,0,1,359.62,135.56Z"/><path class="cls-1" d="M250.34,130.89a3.25,3.25,0,0,1,2.35-3.95h0a3.24,3.24,0,0,1,3.95,2.33h0a3.25,3.25,0,0,1-2.34,3.94h0a3.36,3.36,0,0,1-.82.11h0A3.25,3.25,0,0,1,250.34,130.89Z"/><path class="cls-1" d="M346.75,131.85h0a2.55,2.55,0,0,1-1.91-3.06h0a2.56,2.56,0,0,1,3.07-1.91h0a2.55,2.55,0,0,1,1.91,3.07h0a2.57,2.57,0,0,1-2.49,2h0A2.87,2.87,0,0,1,346.75,131.85Z"/><path class="cls-1" d="M264.19,127.73a2.44,2.44,0,0,1,1.95-2.83h0a2.43,2.43,0,0,1,2.83,1.95h0a2.43,2.43,0,0,1-2,2.83h0a3.42,3.42,0,0,1-.44,0h0A2.44,2.44,0,0,1,264.19,127.73Z"/><path class="cls-1" d="M333.48,128.58h0a1.65,1.65,0,0,1-1.36-1.89h0a1.64,1.64,0,0,1,1.89-1.36h0a1.65,1.65,0,0,1,1.36,1.89h0a1.64,1.64,0,0,1-1.63,1.38h0Z"/><path class="cls-1" d="M277.79,125.57a2.29,2.29,0,0,1,2-2.54h0a2.29,2.29,0,0,1,2.54,2h0a2.29,2.29,0,0,1-2,2.54h0l-.26,0h0A2.31,2.31,0,0,1,277.79,125.57Z"/><path class="cls-1" d="M320.15,126.93a2.23,2.23,0,0,1-2-2.43h0a2.24,2.24,0,0,1,2.43-2h0a2.24,2.24,0,0,1,2,2.44h0a2.24,2.24,0,0,1-2.23,2h-.2Z"/><path class="cls-1" d="M291,124.13a2.28,2.28,0,0,1,2.18-2.37h0a2.29,2.29,0,0,1,2.38,2.18h0a2.29,2.29,0,0,1-2.18,2.37h-.1A2.29,2.29,0,0,1,291,124.13Z"/><path class="cls-1" d="M306.87,126.08a2.16,2.16,0,0,1-2.11-2.22h0a2.16,2.16,0,0,1,2.21-2.11h0a2.16,2.16,0,0,1,2.12,2.22h0a2.16,2.16,0,0,1-2.17,2.11h-.05Z"/><circle class="cls-1" cx="391.86" cy="130.43" r="1.31"/><circle class="cls-1" cx="404.18" cy="136.54" r="1.12"/><circle class="cls-1" cx="414.95" cy="143.04" r="1.12"/><circle class="cls-1" cx="426.59" cy="151.29" r="2.57"/><circle class="cls-1" cx="436.85" cy="159.45" r="3.01"/><circle class="cls-1" cx="447.06" cy="168.75" r="1.99"/><circle class="cls-1" cx="353.43" cy="116.84" r="1.21"/><circle class="cls-1" cx="366.73" cy="120.04" r="1.02"/><circle class="cls-1" cx="379.34" cy="124.7" r="1.02"/><circle class="cls-1" cx="340.19" cy="113.3" r="0.68"/><circle class="cls-1" cx="327.19" cy="111.65" r="0.78"/><circle class="cls-1" cx="313.41" cy="109.61" r="0.78"/><circle class="cls-1" cx="299.93" cy="109.81" r="1.07"/><circle class="cls-1" cx="286.39" cy="110.73" r="1.6"/><circle class="cls-1" cx="196.69" cy="137.27" r="1.84"/><circle class="cls-1" cx="209.21" cy="131.06" r="1.94"/><circle class="cls-1" cx="221" cy="125.38" r="1.6"/><circle class="cls-1" cx="233.9" cy="120.82" r="1.99"/><circle class="cls-1" cx="246.42" cy="116.94" r="3.15"/><circle class="cls-1" cx="259.13" cy="113.84" r="1.99"/><circle class="cls-1" cx="273.92" cy="112.43" r="2.13"/><circle class="cls-1" cx="154.3" cy="169.28" r="2.91"/><circle class="cls-1" cx="163.46" cy="159.82" r="3.44"/><circle class="cls-1" cx="174.52" cy="152.06" r="2.47"/><circle class="cls-1" cx="185.68" cy="143.91" r="1.6"/><circle class="cls-1" cx="288.43" cy="531.13" r="1.31"/><circle class="cls-1" cx="300.85" cy="531.23" r="1.31"/><circle class="cls-1" cx="315.06" cy="530.5" r="1.16"/><circle class="cls-1" cx="380.89" cy="532.15" r="1.29"/><circle class="cls-1" cx="473.18" cy="174.13" r="0.85"/><circle class="cls-1" cx="464.04" cy="164.09" r="1.3"/><circle class="cls-1" cx="454.12" cy="154.84" r="1.52"/><circle class="cls-1" cx="444.02" cy="145.76" r="1.92"/><circle class="cls-1" cx="433.42" cy="137.63" r="1.35"/><circle class="cls-1" cx="421.8" cy="129.85" r="1.24"/><circle class="cls-1" cx="410.07" cy="122.97" r="0.79"/><circle class="cls-1" cx="399.07" cy="116.6" r="0.96"/><circle class="cls-1" cx="128.37" cy="174.96" r="1.68"/><circle class="cls-1" cx="137.25" cy="165.38" r="2.44"/><circle class="cls-1" cx="147.06" cy="155.69" r="2.26"/><circle class="cls-1" cx="156.93" cy="146.98" r="2.73"/><circle class="cls-1" cx="167.38" cy="138.16" r="2.15"/><circle class="cls-1" cx="179.62" cy="131.02" r="1.51"/><circle class="cls-1" cx="189.78" cy="123.3" r="0.87"/><circle class="cls-1" cx="202.08" cy="117.96" r="0.99"/><circle class="cls-1" cx="214.44" cy="111.98" r="0.7"/><circle class="cls-1" cx="228.08" cy="106.35" r="1.22"/><circle class="cls-1" cx="239.92" cy="103.22" r="1.68"/><circle class="cls-1" cx="253.21" cy="100.03" r="1.97"/><circle class="cls-1" cx="266.27" cy="96.72" r="1.22"/><circle class="cls-1" cx="280.26" cy="96.31" r="1.39"/><circle class="cls-1" cx="293.61" cy="94.92" r="1.28"/><circle class="cls-1" cx="306.9" cy="94.4" r="0.99"/><circle class="cls-1" cx="320.71" cy="95.44" r="0.75"/><circle class="cls-1" cx="428.79" cy="116.54" r="1.24"/><circle class="cls-1" cx="439.96" cy="123.98" r="0.45"/><circle class="cls-1" cx="450.51" cy="131.6" r="0.96"/><circle class="cls-1" cx="461.11" cy="140.62" r="0.85"/><circle class="cls-1" cx="471.04" cy="149.87" r="1.52"/><circle class="cls-1" cx="480.96" cy="159.69" r="1.18"/><circle class="cls-1" cx="489.03" cy="169.56" r="0.56"/><circle class="cls-1" cx="299.94" cy="79.51" r="0.95"/><circle class="cls-1" cx="219.98" cy="94.29" r="1.33"/><circle class="cls-1" cx="233.43" cy="89.74" r="1.33"/><circle class="cls-1" cx="246.56" cy="86.82" r="1.64"/><circle class="cls-1" cx="260.1" cy="83.65" r="0.98"/><circle class="cls-1" cx="273.27" cy="81.3" r="0.71"/><circle class="cls-1" cx="287.03" cy="80.54" r="0.82"/><circle class="cls-1" cx="171.7" cy="117.51" r="1.62"/><circle class="cls-1" cx="160.9" cy="125.26" r="1.26"/><circle class="cls-1" cx="150" cy="133.09" r="2.07"/><circle class="cls-1" cx="139.65" cy="141.1" r="1.62"/><circle class="cls-1" cx="130.38" cy="150.92" r="2.07"/><circle class="cls-1" cx="120.74" cy="161.63" r="2.16"/><circle class="cls-1" cx="111.83" cy="171.09" r="0.81"/><path class="cls-2" d="M601,454.49a6.25,6.25,0,0,1-.72-.63A6.25,6.25,0,0,0,601,454.49Z"/><path class="cls-2" d="M601.79,455c-.2-.11-.38-.23-.57-.35C601.41,454.79,601.59,454.91,601.79,455Z"/><path class="cls-2" d="M608.05,456.39l-.88,0Z"/><path class="cls-2" d="M603.89,455.83l-.66-.2Z"/><path class="cls-2" d="M605.14,456.11l-.73-.15Z"/><path class="cls-2" d="M609,456.42l1.18,0H609Z"/><path class="cls-2" d="M602.77,455.47a6.46,6.46,0,0,1-.6-.27A6.46,6.46,0,0,0,602.77,455.47Z"/><path class="cls-2" d="M407.46,334l-.38,0Z"/><path class="cls-2" d="M406.62,334.08l-.29.07Z"/><path class="cls-2" d="M405.92,334.34l-.2.09Z"/><path class="cls-2" d="M606.53,456.29c-.28,0-.55-.05-.8-.09C606,456.24,606.25,456.27,606.53,456.29Z"/><path class="cls-1" d="M301.49,458.85h0a3.26,3.26,0,1,0-3.29-3.23A3.27,3.27,0,0,0,301.52,458.85Z"/><path class="cls-1" d="M288.38,451.94a3.13,3.13,0,1,0-.56,6.24l.29,0a3.14,3.14,0,0,0,.27-6.26Z"/><path class="cls-1" d="M314.6,451.51a3.29,3.29,0,0,0,.36,6.55,1.46,1.46,0,0,0,.36,0,3.28,3.28,0,1,0-.72-6.52Z"/><path class="cls-1" d="M275.24,450.06a3.2,3.2,0,1,0-1.19,6.29,2.88,2.88,0,0,0,.59,0,3.2,3.2,0,0,0,.6-6.34Z"/><path class="cls-1" d="M329.1,456.05a3.14,3.14,0,1,0-.66.07A3,3,0,0,0,329.1,456.05Z"/><path class="cls-1" d="M262.5,447.06a3.09,3.09,0,0,0-1.76,5.92,3,3,0,0,0,.88.13,3.09,3.09,0,0,0,.88-6.05Z"/><path class="cls-1" d="M340.33,446.51a3.31,3.31,0,0,0,1,6.46,3.38,3.38,0,0,0,1-.16,3.31,3.31,0,0,0-2-6.3Z"/><path class="cls-1" d="M250,442.59a3.18,3.18,0,1,0,1.74,4.14A3.19,3.19,0,0,0,250,442.59Z"/><path class="cls-1" d="M357,443.5a3.22,3.22,0,1,0-2.95,4.51,3.27,3.27,0,0,0,1.29-.26h0a3.24,3.24,0,0,0,1.81-2.09v-1.74A3.45,3.45,0,0,0,357,443.5Z"/><path class="cls-1" d="M238.07,437.05a3.09,3.09,0,1,0-2.9,5.46,3,3,0,0,0,1.45.36,3.09,3.09,0,0,0,1.45-5.82Z"/><path class="cls-1" d="M226.75,430.29a3.07,3.07,0,0,0-3.42,5.1,3.12,3.12,0,0,0,1.71.51,3.06,3.06,0,0,0,1.71-5.61Z"/><path class="cls-1" d="M376,429a3.51,3.51,0,0,0,1.88,6.39v-7A3.55,3.55,0,0,0,376,429Z"/><path class="cls-1" d="M212.34,423a2.79,2.79,0,0,0,.38,3.92,2.74,2.74,0,0,0,1.76.63,2.78,2.78,0,1,0-2.14-4.55Z"/><path class="cls-1" d="M202.53,413.68a2.78,2.78,0,1,0,3.93,0A2.77,2.77,0,0,0,202.53,413.68Z"/><path class="cls-1" d="M402,414.58a3.54,3.54,0,0,0-1.09-2.25,3.57,3.57,0,0,0-6,3.18,15.74,15.74,0,0,1,5.7-1C401.07,414.53,401.52,414.55,402,414.58Z"/><path class="cls-1" d="M195.46,408.37a2.74,2.74,0,0,0,1.75-.62,2.78,2.78,0,1,0-3.9-.4A2.72,2.72,0,0,0,195.46,408.37Z"/><path class="cls-1" d="M404.94,407.41a3.86,3.86,0,0,0,2.39.81,3.88,3.88,0,1,0-2.39-.81Z"/><path class="cls-1" d="M187.47,397.47a2.78,2.78,0,0,0,2.31-4.32h0a2.78,2.78,0,0,0-4.64,3.06A2.8,2.8,0,0,0,187.47,397.47Z"/><path class="cls-1" d="M413.25,395.71a3.43,3.43,0,1,0,3.65-5.82,3.43,3.43,0,0,0-3.65,5.82Z"/><path class="cls-1" d="M180.6,386.32a3.28,3.28,0,1,0-2.9-1.76A3.28,3.28,0,0,0,180.6,386.32Z"/><path class="cls-1" d="M418.05,379.82a4.07,4.07,0,0,0,1.83,5.43,4.13,4.13,0,0,0,1.8.42,4.05,4.05,0,0,0,3.63-2.26,4,4,0,0,0,0-3.57,16.59,16.59,0,0,1-3.75-2.25A4,4,0,0,0,418.05,379.82Z"/><path class="cls-1" d="M174.93,374.53a3.68,3.68,0,0,0,1.4-.28,3.73,3.73,0,1,0-1.4.28Z"/><path class="cls-1" d="M169.51,354.52a3.61,3.61,0,0,0,1,7.08,3.39,3.39,0,0,0,1-.13,3.62,3.62,0,1,0-2-7Z"/><path class="cls-1" d="M432.17,352.41a3.92,3.92,0,1,0,2.8,4.8A3.92,3.92,0,0,0,432.17,352.41Z"/><path class="cls-1" d="M168.1,348.59a3.78,3.78,0,1,0-.68.07A2.62,2.62,0,0,0,168.1,348.59Z"/><path class="cls-1" d="M165.65,335.41H166a4,4,0,1,0-.32,0Z"/><path class="cls-1" d="M435.2,333.55h.24a4,4,0,1,0-.24,0Z"/><path class="cls-1" d="M165.24,321.71a3.75,3.75,0,1,0-.08,0Z"/><path class="cls-1" d="M436.11,313.14a3.6,3.6,0,0,0,.07,7.2h.08a3.6,3.6,0,0,0-.15-7.2Z"/><path class="cls-1" d="M166.61,300.55a3.91,3.91,0,1,0-.91,7.76l.46,0a3.91,3.91,0,0,0,.45-7.79Z"/><path class="cls-1" d="M435.23,308.25a4.6,4.6,0,1,0-.56,0A3.57,3.57,0,0,0,435.23,308.25Z"/><path class="cls-1" d="M172.3,292a4,4,0,1,0-4.75,3,4.19,4.19,0,0,0,.86.09A4,4,0,0,0,172.3,292Z"/><path class="cls-1" d="M432.89,293.71a3.93,3.93,0,0,0,.9-.09,4.08,4.08,0,0,0-1.8-8,4.26,4.26,0,0,0-1.18.49v7A4,4,0,0,0,432.89,293.71Z"/><path class="cls-1" d="M176.14,279.44a4.4,4.4,0,1,0-5.54,2.8,4.66,4.66,0,0,0,1.36.22A4.4,4.4,0,0,0,176.14,279.44Z"/><path class="cls-1" d="M178.4,261.9a3.87,3.87,0,1,0-3.14,7.07,3.8,3.8,0,0,0,1.57.34,3.87,3.87,0,0,0,1.57-7.41Z"/><path class="cls-1" d="M185,249.85a4.07,4.07,0,0,0-4.05,7.06,4.2,4.2,0,0,0,2,.53,4.06,4.06,0,0,0,2-7.59Z"/><path class="cls-1" d="M188.11,244.94a3.61,3.61,0,0,0,2.11.68,3.64,3.64,0,1,0-2.11-.68Z"/><path class="cls-1" d="M408.09,238.43a3.68,3.68,0,0,0,2.17,6.68,3.64,3.64,0,0,0,2.15-.69,3.69,3.69,0,1,0-4.32-6Z"/><path class="cls-1" d="M195.38,228.55a4.29,4.29,0,0,0,.4,6.06,4.24,4.24,0,0,0,2.82,1.06,4.29,4.29,0,1,0-3.22-7.12Z"/><path class="cls-1" d="M399.17,227.86a4,4,0,0,0-.36,5.64h0a4,4,0,0,0,3,1.35,4,4,0,0,0,3-6.64A4,4,0,0,0,399.17,227.86Z"/><path class="cls-1" d="M210.49,219.33a3.4,3.4,0,1,0-2.48,5.73,3.44,3.44,0,0,0,2.33-.92A3.4,3.4,0,0,0,210.49,219.33Z"/><path class="cls-1" d="M389.69,218.68a3.67,3.67,0,1,0,5.18-.2A3.67,3.67,0,0,0,389.69,218.68Z"/><path class="cls-1" d="M222.12,210a4.78,4.78,0,1,0-.88,6.69A4.76,4.76,0,0,0,222.12,210Z"/><path class="cls-1" d="M384.16,209.66a3.54,3.54,0,0,0-4.28,5.64A3.47,3.47,0,0,0,382,216a3.54,3.54,0,0,0,2.15-6.36Z"/><path class="cls-1" d="M232.81,203.17a3.94,3.94,0,1,0-1.29,5.43A4,4,0,0,0,232.81,203.17Z"/><path class="cls-1" d="M367.93,203.09a3.41,3.41,0,0,0,1.14,4.69,3.32,3.32,0,0,0,1.77.5,3.41,3.41,0,1,0-2.91-5.19Z"/><path class="cls-1" d="M237.88,200.4a3.83,3.83,0,0,0,3.43,2.13,3.66,3.66,0,0,0,1.66-.38,3.81,3.81,0,1,0-5.09-1.75Z"/><path class="cls-1" d="M355.33,196.66a4,4,0,0,0,3.62,5.77,4,4,0,1,0-3.62-5.77Z"/><path class="cls-1" d="M257.25,192.13a3.74,3.74,0,1,0-3.52,5,3.69,3.69,0,0,0,1.3-.24A3.75,3.75,0,0,0,257.25,192.13Z"/><path class="cls-1" d="M346.15,195.75a3.79,3.79,0,0,0,1.27.23,3.74,3.74,0,1,0-1.27-.23Z"/><path class="cls-1" d="M270.75,188.33a4.26,4.26,0,1,0-4.11,5.32,3.91,3.91,0,0,0,1.06-.14A4.25,4.25,0,0,0,270.75,188.33Z"/><path class="cls-1" d="M332.42,193.82a5,5,0,0,0,1.15.14,4.74,4.74,0,1,0-1.15-.14Z"/><path class="cls-1" d="M275.43,187.35a4.49,4.49,0,0,0,4.45,3.84,3.79,3.79,0,0,0,.67-.06,4.51,4.51,0,1,0-5.12-3.78Z"/><path class="cls-1" d="M319.65,191v0a5,5,0,0,0,.66,0,4.59,4.59,0,1,0-.66-.06Z"/><path class="cls-1" d="M293.32,189.66h.23a4.47,4.47,0,1,0-.23,0Z"/><path class="cls-1" d="M306.65,189.6h.2a4.44,4.44,0,1,0-.2,0Z"/><path class="cls-1" d="M301.69,484a2.14,2.14,0,0,0,0,4.28h0a2.14,2.14,0,0,0,0-4.28Z"/><path class="cls-1" d="M288.45,483.71a2.28,2.28,0,0,0-.34,4.55h.17a2.28,2.28,0,0,0,.17-4.55Z"/><path class="cls-1" d="M314.94,483.66a2,2,0,0,0,.17,4h.18a2,2,0,0,0-.35-4Z"/><path class="cls-1" d="M275.28,481.35a2.18,2.18,0,0,0-.68,4.3,1.34,1.34,0,0,0,.34,0,2.18,2.18,0,0,0,.34-4.33Z"/><path class="cls-1" d="M328.43,485.92a2,2,0,0,0,.34,0,2,2,0,1,0-.34,0Z"/><path class="cls-1" d="M262.26,479.78a2.09,2.09,0,0,0-1,4.06,2.05,2.05,0,0,0,.49.06,2.09,2.09,0,0,0,.49-4.12Z"/><path class="cls-1" d="M342.09,483a2.1,2.1,0,1,0-.53.07A2,2,0,0,0,342.09,483Z"/><path class="cls-1" d="M249.48,475.3a2,2,0,0,0-1.25,3.81h0a2,2,0,0,0,.63.11,2,2,0,0,0,.62-3.91Z"/><path class="cls-1" d="M355.2,480a2.39,2.39,0,1,0-.79.14A2.42,2.42,0,0,0,355.2,480Z"/><path class="cls-1" d="M236.64,470a2.25,2.25,0,1,0-1.76,4.15,2.13,2.13,0,0,0,.88.18,2.25,2.25,0,0,0,.88-4.33Z"/><path class="cls-1" d="M368,474.93a2.8,2.8,0,1,0-1.14.25A2.73,2.73,0,0,0,368,474.93Z"/><path class="cls-1" d="M224.07,465.12a1.83,1.83,0,1,0-.85,3.44,1.83,1.83,0,0,0,.85-3.44Z"/><path class="cls-1" d="M380.21,468.91a2.66,2.66,0,1,0-1.27.32A2.65,2.65,0,0,0,380.21,468.91Z"/><path class="cls-1" d="M213,458.48a2.2,2.2,0,1,0,.68,3A2.2,2.2,0,0,0,213,458.48Z"/><path class="cls-1" d="M392.93,461.87a2.79,2.79,0,1,0-1.54.47A2.75,2.75,0,0,0,392.93,461.87Z"/><path class="cls-1" d="M202.62,450.85a1.9,1.9,0,1,0-2.29,3,2,2,0,0,0,1.15.38,1.9,1.9,0,0,0,1.14-3.41Z"/><path class="cls-1" d="M402.94,454.47v-5.12a2.63,2.63,0,0,0-2.06.5,2.61,2.61,0,0,0,1.6,4.66A2.32,2.32,0,0,0,402.94,454.47Z"/><path class="cls-1" d="M192.67,441.89a2.61,2.61,0,0,0-3.48,3.88,2.61,2.61,0,1,0,3.48-3.89Z"/><path class="cls-1" d="M179.08,432.93a2.12,2.12,0,1,0,3,.08A2.13,2.13,0,0,0,179.08,432.93Z"/><path class="cls-1" d="M419.71,431.23a2.81,2.81,0,0,0,3.47,4.35v-4.87A2.82,2.82,0,0,0,419.71,431.23Z"/><path class="cls-1" d="M170.62,423a1.71,1.71,0,1,0,2.4.26A1.72,1.72,0,0,0,170.62,423Z"/><path class="cls-1" d="M165.2,414.94a2.06,2.06,0,1,0-2.87-.54,2.07,2.07,0,0,0,2.87.54Z"/><path class="cls-1" d="M436.86,415.14a3.31,3.31,0,0,0,4.57-.94,3.3,3.3,0,1,0-4.57.94Z"/><path class="cls-1" d="M155.84,400.81a1.57,1.57,0,0,0-.59,2.13,1.55,1.55,0,0,0,1.36.79,1.64,1.64,0,0,0,.77-.2,1.56,1.56,0,0,0-1.54-2.72Z"/><path class="cls-1" d="M444,403.3a3.14,3.14,0,1,0-1.25-4.27h0A3.15,3.15,0,0,0,444,403.3Z"/><path class="cls-1" d="M148.52,391.13a2.15,2.15,0,0,0,1.95,1.24,2.07,2.07,0,0,0,.9-.2,2.14,2.14,0,1,0-2.85-1Z"/><path class="cls-1" d="M450.59,391.45a3.23,3.23,0,0,0,1.31.29,3.29,3.29,0,1,0-1.31-.29Z"/><path class="cls-1" d="M147.29,377.09a2.1,2.1,0,1,0-2,2.83,2.33,2.33,0,0,0,.73-.12A2.11,2.11,0,0,0,147.29,377.09Z"/><path class="cls-1" d="M457.88,372.4a3.71,3.71,0,1,0,2.28,4.71A3.71,3.71,0,0,0,457.88,372.4Z"/><path class="cls-1" d="M141.2,366.73a1.77,1.77,0,0,0,.46-.07,1.69,1.69,0,1,0-2.08-1.17A1.69,1.69,0,0,0,141.2,366.73Z"/><path class="cls-1" d="M138.16,354.69a2.94,2.94,0,0,0,.51-.05,2.72,2.72,0,1,0-1-5.35,2.72,2.72,0,0,0,.51,5.4Z"/><path class="cls-1" d="M136.37,340.72h.32a3,3,0,0,0,2.62-3.26h0a3,3,0,1,0-2.94,3.28Z"/><path class="cls-1" d="M468.35,339a4.05,4.05,0,1,0-7.31-2.81,4.12,4.12,0,0,0,.86,2.95.92.92,0,0,1,.46-.14Z"/><path class="cls-1" d="M135.48,327.29h.08a3,3,0,1,0-.08,0Z"/><path class="cls-1" d="M462.37,323.16a3.86,3.86,0,0,0,3.76,4h.1a3.85,3.85,0,1,0-3.86-4Z"/><path class="cls-1" d="M132.8,310.73a3.36,3.36,0,0,0,3.17,3.56h.19a3.37,3.37,0,1,0-3.36-3.57Z"/><path class="cls-1" d="M465.59,305.65a4,4,0,0,0,.22,8.06H466a4,4,0,1,0-.45-8.06Z"/><path class="cls-1" d="M137.83,301.27a3.73,3.73,0,1,0-.52,0A4.73,4.73,0,0,0,137.83,301.27Z"/><path class="cls-1" d="M460.9,297.17a3.71,3.71,0,0,0,3.67,3.19,4.36,4.36,0,0,0,.51,0,3.7,3.7,0,0,0,3.17-4,23.1,23.1,0,0,1-5.16-3.08A3.69,3.69,0,0,0,460.9,297.17Z"/><path class="cls-1" d="M143.85,285.16a3.71,3.71,0,1,0-4.43,2.8,3.29,3.29,0,0,0,.82.1A3.72,3.72,0,0,0,143.85,285.16Z"/><path class="cls-1" d="M147.23,272.48a3.71,3.71,0,1,0-4.64,2.44,3.85,3.85,0,0,0,1.1.16A3.7,3.7,0,0,0,147.23,272.48Z"/><path class="cls-1" d="M144.77,257.34a3.72,3.72,0,0,0,2,4.83,4,4,0,0,0,1.39.27,3.7,3.7,0,0,0,3.43-2.33h0a3.71,3.71,0,1,0-6.87-2.78Z"/><path class="cls-1" d="M451.48,256.46V261a4.31,4.31,0,0,0,2.37.71,4.21,4.21,0,0,0,1.62-.32,4.31,4.31,0,1,0-5.52-5.82h.6A.93.93,0,0,1,451.48,256.46Z"/><path class="cls-1" d="M150.43,244.83a3.71,3.71,0,0,0,1.65,5,3.64,3.64,0,0,0,1.66.39,3.71,3.71,0,1,0-3.31-5.37Z"/><path class="cls-1" d="M438.64,229.11a4.93,4.93,0,1,0,6.77,1.64A4.93,4.93,0,0,0,438.64,229.11Z"/><path class="cls-1" d="M162.2,231.59a3.71,3.71,0,0,0-3.87,6.33,3.78,3.78,0,0,0,1.93.54,3.71,3.71,0,0,0,1.94-6.87Z"/><path class="cls-1" d="M433.94,226.68a4.61,4.61,0,1,0-3.74-1.91A4.6,4.6,0,0,0,433.94,226.68Z"/><path class="cls-1" d="M169.93,220.59a3.71,3.71,0,1,0,.8,5.18A3.71,3.71,0,0,0,169.93,220.59Z"/><path class="cls-1" d="M422.78,214.12a3.81,3.81,0,1,0,.4-5.38A3.81,3.81,0,0,0,422.78,214.12Z"/><path class="cls-1" d="M173.67,215.88a3.73,3.73,0,0,0,5.24-.38h0a3.71,3.71,0,1,0-5.62-4.83h0A3.72,3.72,0,0,0,173.67,215.88Z"/><path class="cls-1" d="M185.29,207a3.62,3.62,0,0,0,2.59-1.07,3.68,3.68,0,1,0-2.59,1.07Z"/><path class="cls-1" d="M412.75,205.17a4.32,4.32,0,1,0-.06-6.11A4.31,4.31,0,0,0,412.75,205.17Z"/><path class="cls-1" d="M195.25,198a3.7,3.7,0,1,0-2.85-1.32A3.71,3.71,0,0,0,195.25,198Z"/><path class="cls-1" d="M406.09,197.3a4.32,4.32,0,1,0-2.76-1A4.33,4.33,0,0,0,406.09,197.3Z"/><path class="cls-1" d="M205.92,189.8a3.65,3.65,0,0,0,2.12-.67,3.71,3.71,0,1,0-2.12.67Z"/><path class="cls-1" d="M392.86,189.08a3.62,3.62,0,0,0,2.13.68,3.71,3.71,0,1,0-2.13-.68Z"/><path class="cls-1" d="M217.19,182.52a3.67,3.67,0,0,0,1.88-.51h0a3.71,3.71,0,1,0-1.88.51Z"/><path class="cls-1" d="M381.5,181.88a4.31,4.31,0,0,0,2.21.61,4.38,4.38,0,1,0-2.21-.61Z"/><path class="cls-1" d="M301.58,498.89a2,2,0,0,0,.06,4h.05a2,2,0,1,0-.11-4Z"/><path class="cls-1" d="M288.57,498.77a1.72,1.72,0,0,0-.17,3.44h.09a1.72,1.72,0,0,0,.08-3.44Z"/><path class="cls-1" d="M315,498.34a1.86,1.86,0,0,0,.19,3.71h.19a1.86,1.86,0,0,0-.38-3.7Z"/><path class="cls-1" d="M274.7,501a1.86,1.86,0,1,0-.22,0h0Z"/><path class="cls-1" d="M328.72,500.68a1.88,1.88,0,1,0-2.19-1.51,1.9,1.9,0,0,0,1.86,1.54Z"/><path class="cls-1" d="M262.18,495.36a1.75,1.75,0,0,0-.69,3.43,1.39,1.39,0,0,0,.35,0,1.75,1.75,0,0,0,.34-3.47Z"/><path class="cls-1" d="M341.67,494.78a1.64,1.64,0,0,0-1.16,2,1.62,1.62,0,0,0,1.57,1.21,1.51,1.51,0,0,0,.42-.05,1.63,1.63,0,0,0-.83-3.15Z"/><path class="cls-1" d="M247.8,495.27a1.59,1.59,0,0,0,.48.07,1.79,1.79,0,1,0-.48-.07Z"/><path class="cls-1" d="M355.37,494.61a1.74,1.74,0,1,0-.56.09A1.6,1.6,0,0,0,355.37,494.61Z"/><path class="cls-1" d="M233.79,488a1.72,1.72,0,0,0,1,2.19,1.9,1.9,0,0,0,.57.1,1.72,1.72,0,0,0,1.61-1.13,1.7,1.7,0,0,0-1-2.18h0A1.72,1.72,0,0,0,233.79,488Z"/><path class="cls-1" d="M367.59,489.94a1.62,1.62,0,0,0,.61-.12,1.58,1.58,0,1,0-.61.12Z"/><path class="cls-1" d="M221.79,483.1a1.87,1.87,0,0,0,.94,2.48,1.91,1.91,0,0,0,.77.17,1.88,1.88,0,1,0-1.71-2.65Z"/><path class="cls-1" d="M381.31,484.42a1.86,1.86,0,1,0-.87.22A1.81,1.81,0,0,0,381.31,484.42Z"/><path class="cls-1" d="M210.71,478.64a1.6,1.6,0,0,0,.79.2,1.64,1.64,0,0,0,.78-3.08h0a1.64,1.64,0,0,0-1.57,2.88Z"/><path class="cls-1" d="M392.9,478.08a1.66,1.66,0,1,0-.88.26A1.61,1.61,0,0,0,392.9,478.08Z"/><path class="cls-1" d="M201,469a1.48,1.48,0,1,0-1.6,2.48h0a1.47,1.47,0,0,0,.8.24A1.47,1.47,0,0,0,201,469Z"/><path class="cls-1" d="M404.28,471.07a1.92,1.92,0,1,0-1.13.37A1.84,1.84,0,0,0,404.28,471.07Z"/><path class="cls-1" d="M190.48,461.26a1.41,1.41,0,0,0-1.71,2.25,1.45,1.45,0,0,0,.85.29,1.43,1.43,0,0,0,1.13-.56A1.42,1.42,0,0,0,190.48,461.26Z"/><path class="cls-1" d="M415.5,462.84a2.14,2.14,0,1,0-3-.24,2.11,2.11,0,0,0,1.63.75A2.15,2.15,0,0,0,415.5,462.84Z"/><path class="cls-1" d="M177.81,452.32a1.55,1.55,0,1,0,2.19-.12A1.56,1.56,0,0,0,177.81,452.32Z"/><path class="cls-1" d="M168.13,443.08a1.64,1.64,0,0,0,0,2.32,1.64,1.64,0,0,0,2.31,0,1.64,1.64,0,1,0-2.28-2.35Z"/><path class="cls-1" d="M159.39,432.58a1.75,1.75,0,0,0,1.13,3.1,1.73,1.73,0,0,0,1.12-.4,1.76,1.76,0,1,0-2.25-2.7Z"/><path class="cls-1" d="M444.58,433.7a2.19,2.19,0,1,0-3.07.45,2.13,2.13,0,0,0,1.31.44A2.19,2.19,0,0,0,444.58,433.7Z"/><path class="cls-1" d="M153.38,421.62a1.66,1.66,0,1,0-1.35,2.63,1.69,1.69,0,0,0,1-.31A1.67,1.67,0,0,0,153.38,421.62Z"/><path class="cls-1" d="M144.12,410.23a1.67,1.67,0,0,0,.87,3.1,1.73,1.73,0,0,0,.87-.24,1.69,1.69,0,0,0,.56-2.3A1.67,1.67,0,0,0,144.12,410.23Z"/><path class="cls-1" d="M456.22,411.49a2.24,2.24,0,0,0,1,.25,2.2,2.2,0,0,0,1-4.14,2.2,2.2,0,0,0-2.07,3.89Z"/><path class="cls-1" d="M139.59,398.78a1.66,1.66,0,1,0-.73,2.23A1.65,1.65,0,0,0,139.59,398.78Z"/><path class="cls-1" d="M461.27,396.88a3,3,0,0,0,1.54,4,3.09,3.09,0,0,0,1.21.25,3,3,0,1,0-2.75-4.22Z"/><path class="cls-1" d="M132.66,388.41a1.31,1.31,0,0,0,.54-.11,1.42,1.42,0,1,0-1.09-2.63,1.41,1.41,0,0,0-.77,1.86A1.43,1.43,0,0,0,132.66,388.41Z"/><path class="cls-1" d="M467.26,384.82a2.35,2.35,0,0,0,1.44,3,2.33,2.33,0,0,0,3-1.44,2.35,2.35,0,1,0-4.44-1.56Z"/><path class="cls-1" d="M128.8,372.91a1.4,1.4,0,0,0,.44,2.73,1.31,1.31,0,0,0,.44-.07,1.4,1.4,0,0,0-.88-2.66Z"/><path class="cls-1" d="M476.79,373.93a3.24,3.24,0,0,0-2.29-4,3.29,3.29,0,0,0-.82-.1v6.48A3.23,3.23,0,0,0,476.79,373.93Z"/><path class="cls-1" d="M125.16,363.4a1.7,1.7,0,0,0,1.23-2.07h0a1.7,1.7,0,1,0-1.65,2.12A2,2,0,0,0,125.16,363.4Z"/><path class="cls-1" d="M480.51,360.29h0a3.25,3.25,0,1,0-3.8,2.59,4.18,4.18,0,0,0,.61.05A3.24,3.24,0,0,0,480.51,360.29Z"/><path class="cls-1" d="M124.89,347.5a2.25,2.25,0,1,0-2.23,2.63l.39,0A2.26,2.26,0,0,0,124.89,347.5Z"/><path class="cls-1" d="M120.74,337.33a2.12,2.12,0,1,0-.2,0Z"/><path class="cls-1" d="M481.13,329.76a3.47,3.47,0,0,0-.55,6.92h.28a3.47,3.47,0,0,0,.27-6.93Z"/><path class="cls-1" d="M120,319.13a2.27,2.27,0,0,0,0,4.54h0a2.27,2.27,0,1,0-.08-4.54Z"/><path class="cls-1" d="M117.78,321.45h0Z"/><path class="cls-1" d="M481.3,316.24a3.75,3.75,0,1,0,3.75,3.76A3.74,3.74,0,0,0,481.3,316.24Z"/><path class="cls-1" d="M120.63,305a2.44,2.44,0,1,0-.28,4.87h.15a2.44,2.44,0,0,0,.13-4.88Z"/><path class="cls-1" d="M480.54,302.66a3.77,3.77,0,0,0,.26,7.52h.29a3.77,3.77,0,0,0-.55-7.51Z"/><polygon class="cls-1" points="477.06 306.7 477.06 306.69 477.06 306.69 477.06 306.7"/><path class="cls-1" d="M124.92,294.45a2.56,2.56,0,1,0-2.87,2.2l.34,0A2.55,2.55,0,0,0,124.92,294.45Z"/><path class="cls-1" d="M126.26,281a2.35,2.35,0,1,0-2.79,1.82,2.05,2.05,0,0,0,.49.06A2.36,2.36,0,0,0,126.26,281Z"/><path class="cls-1" d="M473.11,280.27a4,4,0,0,0,3.89,3.11,3.89,3.89,0,0,0,.9-.11A4,4,0,0,0,481,280h-7.88C473.09,280.1,473.09,280.18,473.11,280.27Z"/><path class="cls-1" d="M130.42,268a2.31,2.31,0,1,0-2.87,1.58,2.48,2.48,0,0,0,.65.09A2.32,2.32,0,0,0,130.42,268Z"/><path class="cls-1" d="M132.45,257.75a2.33,2.33,0,1,0-.82-.14A2.34,2.34,0,0,0,132.45,257.75Z"/><path class="cls-1" d="M465.24,255.09a3.72,3.72,0,0,0,1.48,1.78,20,20,0,0,1,5.62-2,3.79,3.79,0,1,0-7.1.17Z"/><path class="cls-1" d="M135.2,241.18a2.71,2.71,0,1,0,3.6-1.32A2.71,2.71,0,0,0,135.2,241.18Z"/><path class="cls-1" d="M459.88,243a3.65,3.65,0,1,0,1.7-4.88A3.66,3.66,0,0,0,459.88,243Z"/><path class="cls-1" d="M143.77,233.06a2.34,2.34,0,1,0-2.05-3.49h0a2.35,2.35,0,0,0,2.05,3.48Z"/><path class="cls-1" d="M457,233.73a3.81,3.81,0,0,0,1.94-.53,3.87,3.87,0,1,0-1.94.53Z"/><path class="cls-1" d="M154.29,220.63a3,3,0,1,0-4.21.86,3,3,0,0,0,4.21-.86Z"/><path class="cls-1" d="M447.46,215.39a3.62,3.62,0,0,0,2.05,6.6,3.69,3.69,0,0,0,2.05-.63,3.62,3.62,0,1,0-4.1-6Z"/><path class="cls-1" d="M157,211.24a3.22,3.22,0,0,0,2,.68,3.24,3.24,0,1,0-2-.68Z"/><path class="cls-1" d="M443.58,205.44a3.25,3.25,0,1,0-2.53,5.27,3.24,3.24,0,0,0,2.53-5.26Z"/><path class="cls-1" d="M167.85,201.51a3.24,3.24,0,1,0-2.18-.83A3.25,3.25,0,0,0,167.85,201.51Z"/><path class="cls-1" d="M432.16,200.45a3.17,3.17,0,0,0,2.21-.87,3.24,3.24,0,1,0-2.21.87Z"/><path class="cls-1" d="M174.71,191a3.25,3.25,0,0,0,2.35,1,3.19,3.19,0,0,0,2.23-.9h0a3.24,3.24,0,1,0-4.58-.12Z"/><path class="cls-1" d="M422.53,190.89a3.25,3.25,0,1,0-2.19-.86A3.18,3.18,0,0,0,422.53,190.89Z"/><path class="cls-1" d="M188.05,183.18a3.24,3.24,0,1,0-2.51-1.19A3.22,3.22,0,0,0,188.05,183.18Z"/><path class="cls-1" d="M410.21,181.38a3.24,3.24,0,1,0-.54-4.56A3.26,3.26,0,0,0,410.21,181.38Z"/><path class="cls-1" d="M301.32,473.85a2.64,2.64,0,1,0-2.64-2.65A2.63,2.63,0,0,0,301.32,473.85Z"/><path class="cls-1" d="M314.58,468.15a2.57,2.57,0,0,0,.23,5.13H315a2.57,2.57,0,1,0-.45-5.12Z"/><path class="cls-1" d="M287.85,473.21h.23a2.38,2.38,0,1,0-.23,0Z"/><path class="cls-1" d="M328.77,470.7a2.38,2.38,0,0,0,.46,0h0a2.58,2.58,0,1,0-.47,0Z"/><path class="cls-1" d="M275,466a2.72,2.72,0,0,0-1,5.36,4.22,4.22,0,0,0,.49,0A2.72,2.72,0,0,0,275,466Z"/><path class="cls-1" d="M341.84,468.44a2.66,2.66,0,1,0-1.41-5.12h0a2.65,2.65,0,0,0,.7,5.21A2.88,2.88,0,0,0,341.84,468.44Z"/><path class="cls-1" d="M262.23,463.27a2.62,2.62,0,1,0-1.39,5.05,2.8,2.8,0,0,0,.7.09,2.62,2.62,0,0,0,.69-5.14Z"/><path class="cls-1" d="M354.68,464.21a2.93,2.93,0,1,0-1,.18A3.09,3.09,0,0,0,354.68,464.21Z"/><path class="cls-1" d="M247.93,463.27a2,2,0,0,0,.67.12,1.91,1.91,0,1,0-.67-.12Z"/><path class="cls-1" d="M237.5,453.83a2.71,2.71,0,0,0-2.35,4.89,2.88,2.88,0,0,0,1.17.26,2.71,2.71,0,0,0,1.18-5.15Z"/><path class="cls-1" d="M225.9,447.58a2.71,2.71,0,0,0-2.78,4.65,2.82,2.82,0,0,0,1.39.38,2.71,2.71,0,0,0,1.39-5Z"/><path class="cls-1" d="M214.85,440.05a2.84,2.84,0,1,0-3.35,4.59,2.74,2.74,0,0,0,1.67.55,2.84,2.84,0,0,0,1.68-5.14Z"/><path class="cls-1" d="M402.92,431.08a3.29,3.29,0,1,0,0,4.93l.06-.07v-4.08C402.94,431.58,402.93,431.33,402.92,431.08Z"/><path class="cls-1" d="M200.37,431.91a2.94,2.94,0,0,0,.27,4.16h0a3,3,0,0,0,2,.73,3,3,0,1,0-2.22-4.9Z"/><path class="cls-1" d="M191,422.59a2.85,2.85,0,1,0,4,.1A2.85,2.85,0,0,0,191,422.59Z"/><path class="cls-1" d="M421,411a3.57,3.57,0,0,0-4.47,5.58,3.48,3.48,0,0,0,2.23.79A3.58,3.58,0,0,0,421,411Z"/><path class="cls-1" d="M186.4,412.84a2.8,2.8,0,1,0-4.38,3.49,2.77,2.77,0,0,0,2.19,1.05,2.7,2.7,0,0,0,1.74-.61A2.79,2.79,0,0,0,186.4,412.84Z"/><path class="cls-1" d="M429.2,399.13a3.71,3.71,0,1,0-4.1,6.18,3.72,3.72,0,0,0,5.13-1A3.71,3.71,0,0,0,429.2,399.13Z"/><path class="cls-1" d="M177,406a2.84,2.84,0,1,0-1.58.49A2.8,2.8,0,0,0,177,406Z"/><path class="cls-1" d="M432,394.35a3.57,3.57,0,0,0,1.75.45,3.71,3.71,0,1,0-1.75-.45Z"/><path class="cls-1" d="M168.53,395a2.72,2.72,0,1,0-2.39-1.43A2.71,2.71,0,0,0,168.53,395Z"/><path class="cls-1" d="M162.69,382.9a3.09,3.09,0,1,0-2.84-1.87A3.1,3.1,0,0,0,162.69,382.9Z"/><path class="cls-1" d="M160.73,366.52a2.91,2.91,0,1,0-2.77,3.81,3.19,3.19,0,0,0,.91-.14A2.91,2.91,0,0,0,160.73,366.52Z"/><path class="cls-1" d="M158,352.86a3.71,3.71,0,1,0-3.61,4.53,3.34,3.34,0,0,0,.82-.1A3.69,3.69,0,0,0,158,352.86Z"/><path class="cls-1" d="M152.44,344.15a3.4,3.4,0,1,0-.44,0Z"/><path class="cls-1" d="M150.8,330.8H151a3.58,3.58,0,1,0-.17,0Z"/><path class="cls-1" d="M450.86,322.37a4.29,4.29,0,1,0-.37,8.57h.2a4.29,4.29,0,0,0,.17-8.57Z"/><path class="cls-1" d="M150.65,317.37h.17a3.63,3.63,0,1,0-.17,0Z"/><path class="cls-1" d="M450.53,308.85a4.38,4.38,0,0,0,.21,8.75h.2a4.37,4.37,0,1,0-.41-8.74Z"/><path class="cls-1" d="M152.52,296.61a3.71,3.71,0,0,0-1,7.35,2.85,2.85,0,0,0,.5,0,3.71,3.71,0,0,0,.49-7.38Z"/><path class="cls-1" d="M158,287.89a3.71,3.71,0,1,0-4.43,2.8,3.81,3.81,0,0,0,.82.09A3.71,3.71,0,0,0,158,287.89Z"/><path class="cls-1" d="M154.44,273a3.71,3.71,0,0,0,7.05,2.29h0a3.7,3.7,0,0,0-7.05-2.28Z"/><path class="cls-1" d="M159.26,260.09a3.72,3.72,0,0,0,2,4.87,3.71,3.71,0,1,0-2-4.87Z"/><path class="cls-1" d="M437.4,256.69a4.45,4.45,0,0,0,1.76,8.53h0v-8.76s0-.08,0-.13A4.51,4.51,0,0,0,437.4,256.69Z"/><path class="cls-1" d="M170.24,246.17a3.71,3.71,0,0,0-3.51,6.54,3.88,3.88,0,0,0,1.75.44,3.71,3.71,0,0,0,1.76-7Z"/><path class="cls-1" d="M173.34,241a3.61,3.61,0,0,0,2,.62,3.71,3.71,0,1,0-3.09-5.75A3.69,3.69,0,0,0,173.34,241Z"/><path class="cls-1" d="M423.34,232.74a4.92,4.92,0,0,0-1.38,6.83,4.87,4.87,0,0,0,3,2.06h2.26a4.92,4.92,0,1,0-3.83-8.89Z"/><path class="cls-1" d="M181,230a3.71,3.71,0,0,0,4.63-5.8A3.71,3.71,0,0,0,181,230Z"/><path class="cls-1" d="M415.3,223a4.75,4.75,0,1,0,6.66.75A4.74,4.74,0,0,0,415.3,223Z"/><path class="cls-1" d="M188.87,213.84a4.48,4.48,0,1,0,6.34-.14A4.49,4.49,0,0,0,188.87,213.84Z"/><path class="cls-1" d="M406.32,213.53a4.29,4.29,0,0,0,3,7.38,4.22,4.22,0,0,0,3-1.2,4.29,4.29,0,1,0-5.94-6.18Z"/><path class="cls-1" d="M198.67,210.4a4.17,4.17,0,1,0,.39-5.89A4.13,4.13,0,0,0,198.67,210.4Z"/><path class="cls-1" d="M396,204.92a3.7,3.7,0,0,0,.35,5.23h0a3.64,3.64,0,0,0,2.42.9,3.7,3.7,0,1,0-2.78-6.13Z"/><path class="cls-1" d="M208.63,202a4.55,4.55,0,0,0,3.68,1.87A4.51,4.51,0,0,0,215,203a4.55,4.55,0,1,0-6.35-1Z"/><path class="cls-1" d="M385,196.38a4,4,0,0,0,.88,5.56,3.94,3.94,0,0,0,2.35.76,4,4,0,1,0-3.23-6.32Z"/><path class="cls-1" d="M219.66,194.16a4.5,4.5,0,0,0,3.84,2.19,4.6,4.6,0,0,0,2.31-.64,4.48,4.48,0,1,0-6.15-1.55Z"/><path class="cls-1" d="M375.14,194.79a3.62,3.62,0,0,0,1.89.52,3.7,3.7,0,1,0-1.89-.52Z"/><path class="cls-1" d="M235.32,190.29a4.7,4.7,0,0,0,2.09-.48,4.8,4.8,0,1,0-2.09.48Z"/><path class="cls-1" d="M363.81,188.57a4.22,4.22,0,0,0,1.78.4,4.09,4.09,0,1,0-1.78-.4Z"/><path class="cls-1" d="M247.66,184.6a4.51,4.51,0,0,0,1.56-.28,4.45,4.45,0,1,0-1.56.28Z"/><path class="cls-1" d="M351.33,184.05h0a4.45,4.45,0,0,0,1.5.27,4.33,4.33,0,1,0-1.5-.28Z"/><path class="cls-1" d="M260.42,180.88a5,5,0,0,0,1.31-.19,4.84,4.84,0,1,0-1.31.19Z"/><path class="cls-1" d="M338.92,180.05a4.45,4.45,0,0,0,1.13.15,4.29,4.29,0,1,0-1.13-.15Z"/><path class="cls-1" d="M273.5,177.39a3.47,3.47,0,0,0,.79-.08,4.33,4.33,0,1,0-.79.08Z"/><path class="cls-1" d="M450.17,343.63a3.7,3.7,0,1,0-3.86-3.85,4.05,4.05,0,0,0,0,.7A16.09,16.09,0,0,1,450.17,343.63Z"/><path class="cls-1" d="M450.55,296.84H447a4.38,4.38,0,0,0,3.18,7.42,3.44,3.44,0,0,0,.55,0,4.4,4.4,0,0,0,.79-8.56v.24A.93.93,0,0,1,450.55,296.84Z"/><path class="cls-1" d="M297.87,441a2.78,2.78,0,0,0,2.78,2.77h0a2.78,2.78,0,1,0-2.79-2.77Z"/><path class="cls-1" d="M284.4,440a2.77,2.77,0,0,0,2.46,3.06h.3A2.78,2.78,0,1,0,284.4,440Z"/><path class="cls-1" d="M314.15,443h.32a2.87,2.87,0,1,0-.32,0Z"/><path class="cls-1" d="M273.52,441.17a3.44,3.44,0,0,0,.7.09,3.22,3.22,0,1,0-.7-.09Z"/><path class="cls-1" d="M328,441.32a3.27,3.27,0,0,0,.75-.09,3.3,3.3,0,1,0-.75.09Z"/><path class="cls-1" d="M262.62,430.78a3.44,3.44,0,1,0-2.26,6.5,3.25,3.25,0,0,0,1.13.2,3.44,3.44,0,0,0,1.13-6.7Z"/><path class="cls-1" d="M341.1,437.65a3.5,3.5,0,0,0,1.14-.19,3.43,3.43,0,1,0-1.14.19Z"/><path class="cls-1" d="M250.2,426.28a3.26,3.26,0,0,0-2.82,5.87,3.4,3.4,0,0,0,1.41.32,3.25,3.25,0,0,0,1.41-6.19Z"/><path class="cls-1" d="M352.94,431.82a2.78,2.78,0,1,0-2.5-1.57A2.79,2.79,0,0,0,352.94,431.82Z"/><path class="cls-1" d="M238.31,419.9a3,3,0,1,0,.95,4.16A3,3,0,0,0,238.31,419.9Z"/><path class="cls-1" d="M227.16,412.71a2.78,2.78,0,1,0-3.45,4.35,2.73,2.73,0,0,0,1.72.6,2.82,2.82,0,0,0,2.19-1A2.78,2.78,0,0,0,227.16,412.71Z"/><path class="cls-1" d="M378.32,415.72a2.76,2.76,0,1,0-2.55,1.7,2.8,2.8,0,0,0,1.74-.61,3,3,0,0,0,.4-.39A.9.9,0,0,1,378.32,415.72Z"/><path class="cls-1" d="M213.47,403.69A3.13,3.13,0,0,0,215.7,409a3.09,3.09,0,0,0,2.22-.92,3.14,3.14,0,0,0-4.45-4.42Z"/><path class="cls-1" d="M386.26,408.4a3.2,3.2,0,0,0,2.26-5.46,3.2,3.2,0,1,0-2.26,5.46Z"/><path class="cls-1" d="M208.46,394.11a2.77,2.77,0,1,0-4.32,3.47,2.74,2.74,0,0,0,2.17,1A2.69,2.69,0,0,0,208,398,2.76,2.76,0,0,0,208.46,394.11Z"/><path class="cls-1" d="M393.64,397.17a2.79,2.79,0,1,0-.43-3.91A2.79,2.79,0,0,0,393.64,397.17Z"/><path class="cls-1" d="M199.93,387.2a2.78,2.78,0,1,0-1.49.43A2.78,2.78,0,0,0,199.93,387.2Z"/><path class="cls-1" d="M401.06,386.83a3,3,0,1,0-.95-4.18A3,3,0,0,0,401.06,386.83Z"/><path class="cls-1" d="M193.07,375.55a2.77,2.77,0,1,0-1.21.28A2.89,2.89,0,0,0,193.07,375.55Z"/><path class="cls-1" d="M411.72,373.89h0a2.78,2.78,0,1,0-3.72,1.31,2.91,2.91,0,0,0,1.21.27A2.79,2.79,0,0,0,411.72,373.89Z"/><path class="cls-1" d="M186.64,363.94a3.16,3.16,0,0,0,1.12-.2,3.33,3.33,0,1,0-1.12.2Z"/><path class="cls-1" d="M413.93,357.46a2.77,2.77,0,0,0-.46,5.35,2.93,2.93,0,0,0,.57.13,28.58,28.58,0,0,1-.2-3.23Q413.84,358.56,413.93,357.46Z"/><path class="cls-1" d="M182.86,351.37a4,4,0,0,0,.85-.1,3.75,3.75,0,1,0-.85.1Z"/><path class="cls-1" d="M180.57,337.84a2.83,2.83,0,0,0,.41,0,3.5,3.5,0,1,0-.41,0Z"/><path class="cls-1" d="M420.06,336.62l.31,0a2.81,2.81,0,1,0-.31,0Z"/><path class="cls-1" d="M179.78,324.36h0a3.58,3.58,0,1,0-3.58-3.56A3.6,3.6,0,0,0,179.79,324.36Z"/><path class="cls-1" d="M176.68,306.88a3.82,3.82,0,0,0,3.39,4.21,2.88,2.88,0,0,0,.41,0,3.83,3.83,0,1,0-3.8-4.23Z"/><path class="cls-1" d="M420.26,308.81l.34,0a2.78,2.78,0,1,0-.34,0Z"/><path class="cls-1" d="M186.46,294.79a3.87,3.87,0,1,0-4.62,2.94,4,4,0,0,0,.85.09A3.86,3.86,0,0,0,186.46,294.79Z"/><path class="cls-1" d="M189.8,282.12a3.64,3.64,0,0,0-6.87-2.38h0a3.64,3.64,0,0,0,2.25,4.62,3.87,3.87,0,0,0,1.18.21A3.63,3.63,0,0,0,189.8,282.12Z"/><path class="cls-1" d="M414.11,281.49a2,2,0,0,0,.58-.1,1.74,1.74,0,1,0-1.17-3.27,1.66,1.66,0,0,0-.61.38c-.06.77-.12,1.52-.22,2.24A1.74,1.74,0,0,0,414.11,281.49Z"/><path class="cls-1" d="M191.5,271.2a2.78,2.78,0,0,0,2.51-1.58h0a2.78,2.78,0,1,0-5-2.4,2.76,2.76,0,0,0,1.31,3.7A2.72,2.72,0,0,0,191.5,271.2Z"/><path class="cls-1" d="M199.48,254.21a2.78,2.78,0,1,0-2.95,4.71,2.73,2.73,0,0,0,1.47.43,2.78,2.78,0,0,0,2.37-1.31h0A2.79,2.79,0,0,0,199.48,254.21Z"/><path class="cls-1" d="M404.57,254a2.79,2.79,0,0,0-3.84-.85,2.72,2.72,0,0,0-1.24,2,16.13,16.13,0,0,1,4.94,2.06A2.75,2.75,0,0,0,404.57,254Z"/><path class="cls-1" d="M204.06,247.69a2.78,2.78,0,1,0-.45-3.9A2.78,2.78,0,0,0,204.06,247.69Z"/><path class="cls-1" d="M392.58,242.38a2.78,2.78,0,0,0-.41,3.91,2.77,2.77,0,0,0,3.91.42,2.78,2.78,0,0,0-3.5-4.33Z"/><path class="cls-1" d="M214.76,238.18a2.74,2.74,0,0,0,2-.82,2.78,2.78,0,1,0-2,.82Z"/><path class="cls-1" d="M383.28,232.57a2.78,2.78,0,1,0,3.93,0A2.78,2.78,0,0,0,383.28,232.57Z"/><path class="cls-1" d="M227,224.6a2.78,2.78,0,0,0-4.33,3.5,2.81,2.81,0,0,0,2.17,1,2.72,2.72,0,0,0,1.74-.61A2.78,2.78,0,0,0,227,224.6Z"/><path class="cls-1" d="M376.85,223.4a2.78,2.78,0,1,0-3.45,4.35,2.74,2.74,0,0,0,1.73.6,2.77,2.77,0,0,0,1.72-4.95Z"/><path class="cls-1" d="M234.29,216.12a2.78,2.78,0,0,0,1.49,5.13,2.72,2.72,0,0,0,1.49-.44,2.78,2.78,0,1,0-3-4.69Z"/><path class="cls-1" d="M364.05,220.59a2.79,2.79,0,1,0-1.46-.43A2.72,2.72,0,0,0,364.05,220.59Z"/><path class="cls-1" d="M248.79,214.36a2.75,2.75,0,1,0-1.22.29A2.67,2.67,0,0,0,248.79,214.36Z"/><path class="cls-1" d="M354.74,212.75a2.38,2.38,0,1,0-3.16,1.12,2.37,2.37,0,0,0,3.16-1.12Z"/><path class="cls-1" d="M260,209.41a2.78,2.78,0,1,0-2.61-1.85A2.77,2.77,0,0,0,260,209.41Z"/><path class="cls-1" d="M338.77,208.84a2.9,2.9,0,0,0,.9.16,2.78,2.78,0,1,0-.9-.15Z"/><path class="cls-1" d="M273.77,206.1a3.35,3.35,0,1,0-.77.09A2.94,2.94,0,0,0,273.77,206.1Z"/><path class="cls-1" d="M323.22,201.79a3.51,3.51,0,0,0,2.67,4.2,4.09,4.09,0,0,0,.76.08,3.52,3.52,0,1,0-3.43-4.28Z"/><path class="cls-1" d="M283.38,200.86a3,3,0,0,0,2.94,2.61,1.88,1.88,0,0,0,.34,0,3,3,0,1,0-3.28-2.59Z"/><path class="cls-1" d="M313.56,203.81h.3a2.86,2.86,0,1,0-.3,0Z"/><path class="cls-1" d="M299.81,202.7h0a3,3,0,1,0-3-3A3,3,0,0,0,299.83,202.7Z"/><path class="cls-1" d="M423.93,319.71a2.78,2.78,0,1,0-2.77,3.11l.33,0A2.78,2.78,0,0,0,423.93,319.71Z"/><path class="cls-1" d="M299.39,425.35a1.69,1.69,0,0,0,1.67,1.7h0a1.69,1.69,0,1,0-1.69-1.7Z"/><path class="cls-1" d="M312.72,424.9a1.84,1.84,0,0,0,1.84,1.64h.2a1.86,1.86,0,1,0-2-1.63Z"/><path class="cls-1" d="M285.82,424.57a1.72,1.72,0,0,0,1.47,1.94l.24,0a1.72,1.72,0,1,0-1.71-2Z"/><path class="cls-1" d="M325.68,422.67a2.26,2.26,0,0,0,2.2,1.73,2.08,2.08,0,0,0,.55-.07,2.27,2.27,0,1,0-2.75-1.66Z"/><path class="cls-1" d="M272.83,422a1.85,1.85,0,0,0,1.3,2.28,1.66,1.66,0,0,0,.49.07,1.85,1.85,0,1,0-1.79-2.35Z"/><path class="cls-1" d="M338.63,418.71a2.38,2.38,0,0,0,2.23,1.51,2.26,2.26,0,0,0,.87-.16,2.39,2.39,0,1,0-3.1-1.35Z"/><path class="cls-1" d="M259.47,417.46a2.34,2.34,0,0,0,1.25,3.06,2.41,2.41,0,0,0,.9.18,2.34,2.34,0,1,0-2.15-3.24Z"/><path class="cls-1" d="M351.24,412.86a1.42,1.42,0,0,0,1.25.74,1.52,1.52,0,0,0,.68-.17,1.43,1.43,0,1,0-1.93-.57Z"/><path class="cls-1" d="M248.23,411.74a1.52,1.52,0,0,0,1.31,2.28,1.53,1.53,0,0,0,1.31-.76,1.51,1.51,0,1,0-2.62-1.52Z"/><path class="cls-1" d="M239.27,403.74a1.85,1.85,0,0,0-2.26,2.94,1.88,1.88,0,0,0,2.61-.34A1.86,1.86,0,0,0,239.27,403.74Z"/><path class="cls-1" d="M375.5,397.15a1.85,1.85,0,1,0-2.62-.08,1.86,1.86,0,0,0,2.62.08Z"/><path class="cls-1" d="M226.93,395.3a1.46,1.46,0,0,0,1,2.48,1.41,1.41,0,0,0,1-.43,1.46,1.46,0,1,0-2.07-2.05Z"/><path class="cls-1" d="M383.35,387.5a1.85,1.85,0,1,0-1.18-.42A1.8,1.8,0,0,0,383.35,387.5Z"/><path class="cls-1" d="M217.36,384.34a2.47,2.47,0,0,0-.44,3.47,2.52,2.52,0,0,0,2,.95,2.43,2.43,0,0,0,1.52-.53,2.47,2.47,0,1,0-3-3.89Z"/><path class="cls-1" d="M390.08,376.47a2,2,0,0,0,1.07.3,2,2,0,1,0-1.07-.3Z"/><path class="cls-1" d="M211,376.82a1.91,1.91,0,0,0,.95-.26,1.85,1.85,0,1,0-.95.26Z"/><path class="cls-1" d="M204.26,366.34a2.85,2.85,0,0,0,1.17-.24,2.93,2.93,0,0,0,1.53-3.86,2.93,2.93,0,1,0-5.39,2.32A2.9,2.9,0,0,0,204.26,366.34Z"/><path class="cls-1" d="M202.34,349.87a2.44,2.44,0,0,0-4.69,1.33h0A2.44,2.44,0,0,0,200,353a2.65,2.65,0,0,0,.67-.1A2.45,2.45,0,0,0,202.34,349.87Z"/><path class="cls-1" d="M197.27,339.64a2.6,2.6,0,0,0,.4,0,2.67,2.67,0,1,0-.4,0Z"/><path class="cls-1" d="M196.23,327.3h.06a2.74,2.74,0,1,0-2.79-2.68A2.73,2.73,0,0,0,196.23,327.3Z"/><path class="cls-1" d="M405,309.13a1.49,1.49,0,0,0,.13,3h.14a1.49,1.49,0,0,0-.27-3Z"/><path class="cls-1" d="M406.62,310.47h0Z"/><path class="cls-1" d="M194,309.55a2.3,2.3,0,0,0,2,2.52h.24a2.3,2.3,0,1,0-2.28-2.53Z"/><path class="cls-1" d="M201.18,298.25a2.5,2.5,0,0,0-4.86-1.15,2.51,2.51,0,0,0,1.87,3,2.17,2.17,0,0,0,.57.07A2.49,2.49,0,0,0,201.18,298.25Z"/><path class="cls-1" d="M199.78,283.56a2.36,2.36,0,0,0,1.36,3,2.53,2.53,0,0,0,.84.15,2.35,2.35,0,1,0-2.2-3.18Z"/><path class="cls-1" d="M393.68,270a1.6,1.6,0,1,0,2.16.68A1.59,1.59,0,0,0,393.68,270Z"/><path class="cls-1" d="M208.65,272.07a1.55,1.55,0,1,0-2.1.64,1.5,1.5,0,0,0,.73.19A1.56,1.56,0,0,0,208.65,272.07Z"/><path class="cls-1" d="M216,260.77a1.68,1.68,0,1,0-1.36.7A1.65,1.65,0,0,0,216,260.77Z"/><path class="cls-1" d="M377.68,250.63h0a1.64,1.64,0,0,0,1.22.55,1.61,1.61,0,0,0,1.1-.43,1.65,1.65,0,1,0-2.32-.13Z"/><path class="cls-1" d="M224.37,247.84a1.85,1.85,0,0,0-2.52,2.72,1.85,1.85,0,0,0,2.63-.1A1.85,1.85,0,0,0,224.37,247.84Z"/><path class="cls-1" d="M368.67,241.61a.82.82,0,0,0,.63-.29.83.83,0,1,0-1.17.09h0A.82.82,0,0,0,368.67,241.61Z"/><path class="cls-1" d="M234,241.36a1.85,1.85,0,1,0-2.6-.23,1.85,1.85,0,0,0,2.6.23Z"/><path class="cls-1" d="M358,234.55a1.86,1.86,0,1,0-1-.31A1.88,1.88,0,0,0,358,234.55Z"/><path class="cls-1" d="M242.85,230.75a1.46,1.46,0,0,0-.45,2,1.48,1.48,0,0,0,1.25.68,1.45,1.45,0,0,0,.79-.23,1.49,1.49,0,0,0,.45-2A1.48,1.48,0,0,0,242.85,230.75Z"/><path class="cls-1" d="M346.29,227.35a1.32,1.32,0,0,0,1.19-.74,1.32,1.32,0,1,0-1.76.61A1.28,1.28,0,0,0,346.29,227.35Z"/><path class="cls-1" d="M255.09,224.87a.68.68,0,0,0-.33.9.7.7,0,0,0,.62.39.77.77,0,0,0,.29-.07.68.68,0,0,0,.32-.9A.66.66,0,0,0,255.09,224.87Z"/><path class="cls-1" d="M320.84,218.78a1.63,1.63,0,0,0,.31,0,1.56,1.56,0,1,0-.31,0Z"/><path class="cls-1" d="M280.84,218.66a1.14,1.14,0,0,0,.27,0,1.46,1.46,0,1,0-1.69-1.16A1.44,1.44,0,0,0,280.84,218.66Z"/><path class="cls-1" d="M307.6,217.09a1.41,1.41,0,0,0,.09-2.81,1.41,1.41,0,1,0-.19,2.81Z"/><path class="cls-1" d="M294.26,217.12a1.57,1.57,0,1,0-.09,0Z"/><path class="cls-1" d="M407.18,324.56a1.34,1.34,0,0,0,.33-.66,1.4,1.4,0,1,0-2.76-.48,1.39,1.39,0,0,0,.36,1.19c.62,0,1.27-.05,1.94-.05Z"/><path class="cls-1" d="M267.46,220.51a.67.67,0,0,0-.32.9.69.69,0,0,0,.61.39.73.73,0,0,0,.29-.07.66.66,0,0,0,.32-.9A.67.67,0,0,0,267.46,220.51Z"/><path class="cls-1" d="M334.48,222.05a.73.73,0,0,0,.29-.07.68.68,0,0,0-.58-1.22.67.67,0,0,0-.32.9A.69.69,0,0,0,334.48,222.05Z"/><path class="cls-1" d="M302.54,512.65a3.25,3.25,0,0,0,0,6.49h0a3.25,3.25,0,1,0,0-6.49Z"/><path class="cls-1" d="M288.1,513.37a2.17,2.17,0,1,0-.27,4.33H288a2.17,2.17,0,0,0,2.17-2.05A2.15,2.15,0,0,0,288.1,513.37Z"/><path class="cls-1" d="M315,513.6a1.75,1.75,0,0,0,.13,3.49h.13a1.74,1.74,0,1,0-.26-3.48Z"/><path class="cls-1" d="M274.9,512.23a2,2,0,0,0-.52,4,1.27,1.27,0,0,0,.27,0,2,2,0,0,0,.25-4Z"/><path class="cls-1" d="M329.2,511.74a2.14,2.14,0,0,0,.3,4.26l.31,0a2.14,2.14,0,0,0-.61-4.24Z"/><path class="cls-1" d="M261.7,510.12a2,2,0,0,0-.78,3.85,2.58,2.58,0,0,0,.39,0,2,2,0,0,0,.39-3.89Z"/><path class="cls-1" d="M341.79,509.78a1.81,1.81,0,0,0,.38,3.58,1.58,1.58,0,0,0,.38,0,1.81,1.81,0,1,0-.76-3.54Z"/><path class="cls-1" d="M248.6,506.81h0a2.19,2.19,0,0,0-1.16,4.23,2.39,2.39,0,0,0,.59.08,2.19,2.19,0,0,0,.57-4.31Z"/><path class="cls-1" d="M355.41,506.38a1.81,1.81,0,0,0,.51,3.55,1.77,1.77,0,0,0,.5-.07,1.81,1.81,0,1,0-1-3.48Z"/><path class="cls-1" d="M236.18,502.59a2.45,2.45,0,1,0-1.62,4.62,2.3,2.3,0,0,0,.81.14,2.45,2.45,0,0,0,.81-4.76Z"/><path class="cls-1" d="M367.35,502.21a2,2,0,0,0,1.35,3.67,2,2,0,0,0,1.16-2.52A2,2,0,0,0,367.35,502.21Z"/><path class="cls-1" d="M224.41,498a2.16,2.16,0,1,0-1.71,4,2,2,0,0,0,.85.18,2.16,2.16,0,0,0,.86-4.14Z"/><path class="cls-1" d="M380.49,497.1a1.85,1.85,0,0,0,.76,3.54,1.81,1.81,0,0,0,.75-.16,1.85,1.85,0,1,0-1.51-3.38Z"/><path class="cls-1" d="M212.23,492.42A2,2,0,1,0,210.4,496a1.85,1.85,0,0,0,.91.22,2,2,0,0,0,.92-3.78Z"/><path class="cls-1" d="M391.86,491.64a1.68,1.68,0,0,0,.8,3.16,1.7,1.7,0,0,0,.79-.19,1.68,1.68,0,1,0-1.59-3Z"/><path class="cls-1" d="M200.54,485.89a2,2,0,1,0-2.06,3.4,1.89,1.89,0,0,0,1,.29,2,2,0,0,0,1-3.69Z"/><path class="cls-1" d="M405,487.46a1.64,1.64,0,1,0-.88.26A1.66,1.66,0,0,0,405,487.46Z"/><path class="cls-1" d="M189.13,478.83a1.64,1.64,0,0,0-1.89,2.68,1.64,1.64,0,1,0,1.89-2.68Z"/><path class="cls-1" d="M416.84,477.39a1.85,1.85,0,1,0-1.5,2.94,1.78,1.78,0,0,0,1.09-.36A1.84,1.84,0,0,0,416.84,477.39Z"/><path class="cls-1" d="M178.6,470.52a1.9,1.9,0,1,0,.28,2.67A1.89,1.89,0,0,0,178.6,470.52Z"/><path class="cls-1" d="M427.68,469.68a2.27,2.27,0,0,0-3.48,2.91,2.31,2.31,0,0,0,1.74.81,2.27,2.27,0,0,0,1.74-3.72Z"/><path class="cls-1" d="M165.86,461.83a1.85,1.85,0,0,0,.09,2.62,1.82,1.82,0,0,0,1.27.5,1.86,1.86,0,1,0-1.36-3.12Z"/><path class="cls-1" d="M437.21,460a1.6,1.6,0,0,0-2.31,2.22,1.6,1.6,0,0,0,2.31-2.22Z"/><path class="cls-1" d="M156.27,452a2,2,0,0,0-.11,2.88,2.09,2.09,0,0,0,1.5.66,2,2,0,0,0,1.49-3.44A2,2,0,0,0,156.27,452Z"/><path class="cls-1" d="M447.33,450.32a2.33,2.33,0,1,0,.16,3.29h0A2.31,2.31,0,0,0,447.33,450.32Z"/><path class="cls-1" d="M147.54,441.79a2,2,0,0,0,1.25,3.51,1.94,1.94,0,0,0,1.24-.44,2,2,0,1,0-2.49-3.07Z"/><path class="cls-1" d="M142.2,431.43a1.92,1.92,0,1,0-1.56,3,1.88,1.88,0,0,0,1.1-.34A1.93,1.93,0,0,0,142.2,431.43Z"/><path class="cls-1" d="M463.24,429.59a1.84,1.84,0,0,0-2.54.48l-.05.11V432a1.82,1.82,0,0,0,3.07.1A1.84,1.84,0,0,0,463.24,429.59Z"/><path class="cls-1" d="M134.92,420.21a2,2,0,1,0-1.67,3,1.9,1.9,0,0,0,1-.29A2,2,0,0,0,134.92,420.21Z"/><path class="cls-1" d="M471.79,420.06a2,2,0,1,0-2.74.72,1.93,1.93,0,0,0,1,.27,2,2,0,0,0,1.4-.55l0,0A2,2,0,0,0,471.79,420.06Z"/><path class="cls-1" d="M125.83,407.84a1.78,1.78,0,1,0,2.4.77A1.78,1.78,0,0,0,125.83,407.84Z"/><path class="cls-1" d="M474.84,409.83a2.42,2.42,0,0,0,1,.24,2.3,2.3,0,0,0,2.08-1.29,2.32,2.32,0,1,0-3.11,1.05Z"/><path class="cls-1" d="M120.24,395.7a1.64,1.64,0,1,0,2.15.86A1.64,1.64,0,0,0,120.24,395.7Z"/><path class="cls-1" d="M480.89,397.52a2.73,2.73,0,0,0,1.07.22,2.84,2.84,0,1,0-1.07-.22Z"/><path class="cls-1" d="M115.34,382.8a1.93,1.93,0,0,0,.64,3.75,2.05,2.05,0,0,0,.64-.11,1.93,1.93,0,1,0-1.28-3.64Z"/><path class="cls-1" d="M486.07,384.9a3.29,3.29,0,0,0,1,.16,3.23,3.23,0,1,0-1-.16Z"/><path class="cls-1" d="M113,370.31a1,1,0,0,0-2,.55h0a1,1,0,0,0,1,.77,1.45,1.45,0,0,0,.28,0A1,1,0,0,0,113,370.31Z"/><path class="cls-1" d="M487.76,368.3A3,3,0,0,0,490,372l.26,0v-6A3,3,0,0,0,487.76,368.3Z"/><path class="cls-1" d="M109,359l.33,0a1.72,1.72,0,1,0-.33,0Z"/><path class="cls-1" d="M108.63,344a2,2,0,1,0-2,2.25h.25A2,2,0,0,0,108.63,344Z"/><path class="cls-1" d="M105.71,333.22a1.92,1.92,0,1,0-.12,0Z"/><path class="cls-1" d="M105.78,320h0a2.49,2.49,0,1,0-2.48-2.51A2.49,2.49,0,0,0,105.81,320Z"/><path class="cls-1" d="M496.48,326.32a3.47,3.47,0,0,0,.09,6.94h.1a3.47,3.47,0,0,0-.19-6.94Z"/><path class="cls-1" d="M105.44,306.1h.19a2.23,2.23,0,1,0-.19,0Z"/><path class="cls-1" d="M495.61,299a3.46,3.46,0,0,0,.33,6.91l.35,0a3.46,3.46,0,1,0-.68-6.89Z"/><path class="cls-1" d="M109.88,291.15a2.33,2.33,0,1,0-2.65,2l.34,0A2.34,2.34,0,0,0,109.88,291.15Z"/><path class="cls-1" d="M110.49,279.31a2.27,2.27,0,1,0-.49-.05A2.81,2.81,0,0,0,110.49,279.31Z"/><path class="cls-1" d="M113.63,266.58a2.48,2.48,0,1,0-2.38-3.17,2.5,2.5,0,0,0,1.69,3.08A2.72,2.72,0,0,0,113.63,266.58Z"/><path class="cls-1" d="M116.86,253.81a2.54,2.54,0,0,0,.89.16,2.6,2.6,0,1,0-.89-.16Z"/><path class="cls-1" d="M480.67,251.13a3.25,3.25,0,0,0,3,2.07,3.31,3.31,0,0,0,1.19-.23,3.25,3.25,0,1,0-4.21-1.84Z"/><path class="cls-1" d="M120.59,237.76a2.55,2.55,0,0,0,1.28,3.36,2.6,2.6,0,0,0,1,.22,2.55,2.55,0,1,0-2.33-3.58Z"/><path class="cls-1" d="M475.47,238.49a3.23,3.23,0,0,0,2.93,1.85,3.25,3.25,0,1,0-2.93-1.85Z"/><path class="cls-1" d="M126.8,225.41a2.47,2.47,0,0,0,1,3.34A2.43,2.43,0,0,0,129,229a2.48,2.48,0,0,0,2.18-1.3,2.47,2.47,0,0,0-4.35-2.33Z"/><path class="cls-1" d="M472.35,228.27a3.25,3.25,0,1,0-2.84-1.66A3.25,3.25,0,0,0,472.35,228.27Z"/><path class="cls-1" d="M134.3,217.83a2.57,2.57,0,1,0-.81-3.55A2.56,2.56,0,0,0,134.3,217.83Z"/><path class="cls-1" d="M465.39,216.94a3.24,3.24,0,1,0-2.72-1.46A3.24,3.24,0,0,0,465.39,216.94Z"/><path class="cls-1" d="M141.39,206.71a2.76,2.76,0,0,0,1.65.54,2.8,2.8,0,1,0-1.65-.54Z"/><path class="cls-1" d="M457.66,206.44a3.17,3.17,0,0,0,2-.66,3.24,3.24,0,1,0-2,.66Z"/><path class="cls-1" d="M151.61,196.71a3.24,3.24,0,1,0-2.08-.76A3.18,3.18,0,0,0,151.61,196.71Z"/><path class="cls-1" d="M449.12,195.5a3.24,3.24,0,1,0-2.45-1.11A3.23,3.23,0,0,0,449.12,195.5Z"/><path class="cls-1" d="M160.67,187.33a3.8,3.8,0,1,0-2.63-1.07A3.74,3.74,0,0,0,160.67,187.33Z"/><path class="cls-1" d="M440,185.87a3.71,3.71,0,1,0-2.63-1.08A3.72,3.72,0,0,0,440,185.87Z"/><path class="cls-1" d="M170.62,177.38a3.24,3.24,0,0,0,2.17-.84h0a3.25,3.25,0,1,0-2.17.83Z"/><path class="cls-1" d="M496.89,312.77a3.47,3.47,0,0,0,.09,6.94h.1a3.47,3.47,0,0,0-.19-6.94Z"/><path class="cls-1" d="M217.55,286.5a1.45,1.45,0,1,0,1.44,1.44A1.44,1.44,0,0,0,217.55,286.5Z"/><circle class="cls-1" cx="212.49" cy="300.41" r="1.81"/><circle class="cls-1" cx="211.41" cy="314.13" r="1.81"/><circle class="cls-1" cx="211.32" cy="327.77" r="1.9"/><path class="cls-1" d="M214.48,341.14a1.54,1.54,0,1,0-3.07,0,1.54,1.54,0,0,0,3.07,0Z"/><path class="cls-1" d="M217.1,355.68a1.54,1.54,0,1,0-1.54-1.54A1.54,1.54,0,0,0,217.1,355.68Z"/><path class="cls-1" d="M231.18,376.09a1.18,1.18,0,1,0,1.18,1.17A1.18,1.18,0,0,0,231.18,376.09Z"/><path class="cls-1" d="M222.6,364.89a.54.54,0,1,0,.55.54A.54.54,0,0,0,222.6,364.89Z"/><path class="cls-1" d="M240.21,385.68a1.43,1.43,0,1,0,1.43,1.43A1.43,1.43,0,0,0,240.21,385.68Z"/><path class="cls-1" d="M262.79,401.06a1.53,1.53,0,1,0,1.53,1.53A1.54,1.54,0,0,0,262.79,401.06Z"/><path class="cls-1" d="M275.66,406.68a.79.79,0,1,0-.79.79A.79.79,0,0,0,275.66,406.68Z"/><path class="cls-1" d="M314.27,410.6a.95.95,0,1,0-.94-1A.95.95,0,0,0,314.27,410.6Z"/><circle class="cls-1" cx="288.14" cy="409.98" r="0.78"/><circle class="cls-1" cx="301.47" cy="411.58" r="0.73"/><path class="cls-1" d="M329.41,406.77a1,1,0,1,0-1,1A1,1,0,0,0,329.41,406.77Z"/><path class="cls-1" d="M341.5,401.78a1.1,1.1,0,1,0-1.1,1.1A1.1,1.1,0,0,0,341.5,401.78Z"/><path class="cls-1" d="M352.58,394.91a.92.92,0,1,0-.92-.92A.92.92,0,0,0,352.58,394.91Z"/><path class="cls-1" d="M362.84,387.76a1.28,1.28,0,1,0-1.28-1.28A1.28,1.28,0,0,0,362.84,387.76Z"/><circle class="cls-1" cx="380.33" cy="365.14" r="1.01"/><path class="cls-1" d="M390.59,326.67a.64.64,0,0,0,.64.64.64.64,0,1,0,0-1.28A.64.64,0,0,0,390.59,326.67Z"/><path class="cls-1" d="M391.19,312.2a.69.69,0,1,0,.68.68A.68.68,0,0,0,391.19,312.2Z"/><path class="cls-1" d="M388.39,300.29a.74.74,0,1,0,.74-.73A.74.74,0,0,0,388.39,300.29Z"/><path class="cls-1" d="M371.72,263a.7.7,0,1,0,.69.69A.69.69,0,0,0,371.72,263Z"/><path class="cls-1" d="M352.18,246.11a.54.54,0,1,0,.53.54A.54.54,0,0,0,352.18,246.11Z"/><path class="cls-1" d="M328.22,234.08a.74.74,0,0,0-.74-.74.75.75,0,0,0-.75.74.76.76,0,0,0,.75.75A.75.75,0,0,0,328.22,234.08Z"/><path class="cls-1" d="M274.67,234.4a.75.75,0,0,0-1.49,0,.75.75,0,1,0,1.49,0Z"/><path class="cls-1" d="M261.9,239.57a.38.38,0,1,0-.75,0,.38.38,0,0,0,.75,0Z"/><circle class="cls-1" cx="367.85" cy="520.13" r="1.19"/><path class="cls-1" d="M380.58,514.72a.92.92,0,1,0,.92.92A.92.92,0,0,0,380.58,514.72Z"/><path class="cls-1" d="M393.23,510.87a.73.73,0,0,0,0-1.46.73.73,0,1,0,0,1.46Z"/><circle class="cls-1" cx="404.86" cy="503.64" r="1.19"/><circle class="cls-1" cx="416.58" cy="496.13" r="0.82"/><path class="cls-1" d="M428.59,487.79a1.29,1.29,0,1,0,1.28,1.28A1.28,1.28,0,0,0,428.59,487.79Z"/><circle class="cls-1" cx="438.75" cy="480.55" r="1.19"/><path class="cls-1" d="M449.47,473.5a1.65,1.65,0,1,0-1.65-1.65A1.65,1.65,0,0,0,449.47,473.5Z"/><circle class="cls-1" cx="457.53" cy="461.96" r="1.1"/><circle class="cls-1" cx="466.6" cy="451.24" r="1.19"/><circle class="cls-1" cx="481.46" cy="429.79" r="1.65"/><path class="cls-1" d="M492.71,405.34a1.36,1.36,0,1,0,1.36-1.36A1.36,1.36,0,0,0,492.71,405.34Z"/><path class="cls-1" d="M496.79,393a2,2,0,1,0,2-2A2,2,0,0,0,496.79,393Z"/><path class="cls-1" d="M506.05,364.49a2.28,2.28,0,1,0,2.28,2.28A2.28,2.28,0,0,0,506.05,364.49Z"/><path class="cls-1" d="M511.24,353.82a2.43,2.43,0,1,0-2.42,2.43A2.42,2.42,0,0,0,511.24,353.82Z"/><path class="cls-1" d="M509.3,326.27a2.72,2.72,0,1,0,2.72-2.72A2.71,2.71,0,0,0,509.3,326.27Z"/><circle class="cls-1" cx="511.87" cy="312.83" r="2.57"/><path class="cls-1" d="M510.47,297.65a2.52,2.52,0,1,0,2.52,2.52A2.52,2.52,0,0,0,510.47,297.65Z"/><path class="cls-1" d="M505.47,258.38a3.44,3.44,0,1,0-3.94,4.8,18.68,18.68,0,0,1,1.64-2.45A17.08,17.08,0,0,1,505.47,258.38Z"/><path class="cls-1" d="M496.79,247.68a1.84,1.84,0,1,0,1.84-1.85A1.84,1.84,0,0,0,496.79,247.68Z"/><path class="cls-1" d="M493.49,236.52a1.85,1.85,0,1,0-1.85-1.84A1.84,1.84,0,0,0,493.49,236.52Z"/><circle class="cls-1" cx="487.81" cy="222.89" r="2.38"/><path class="cls-1" d="M480.49,212.46a1.94,1.94,0,1,0-1.94-1.94A1.94,1.94,0,0,0,480.49,212.46Z"/><path class="cls-1" d="M473.45,201.3a1.89,1.89,0,1,0-1.89-1.89A1.89,1.89,0,0,0,473.45,201.3Z"/><path class="cls-1" d="M456.76,180.54a2.28,2.28,0,1,0-2.28-2.28A2.28,2.28,0,0,0,456.76,180.54Z"/><path class="cls-1" d="M465.25,190.82a1.94,1.94,0,1,0-1.94-1.94A1.94,1.94,0,0,0,465.25,190.82Z"/><circle class="cls-1" cx="127.03" cy="200.62" r="1.94"/><path class="cls-1" d="M135.86,192.08a2.72,2.72,0,1,0-2.72-2.71A2.71,2.71,0,0,0,135.86,192.08Z"/><path class="cls-1" d="M144.54,182.38a2.86,2.86,0,1,0-2.86-2.86A2.86,2.86,0,0,0,144.54,182.38Z"/><path class="cls-1" d="M95.55,272.52a1.7,1.7,0,1,0,1.7,1.69A1.7,1.7,0,0,0,95.55,272.52Z"/><path class="cls-1" d="M98.75,258.93a1.7,1.7,0,1,0,1.7,1.7A1.7,1.7,0,0,0,98.75,258.93Z"/><path class="cls-1" d="M103.31,251a1.9,1.9,0,1,0-1.89-1.89A1.89,1.89,0,0,0,103.31,251Z"/><circle class="cls-1" cx="107.68" cy="235.7" r="1.6"/><path class="cls-1" d="M111.7,223.91a1.75,1.75,0,1,0,1.75-1.75A1.74,1.74,0,0,0,111.7,223.91Z"/><path class="cls-1" d="M118.69,211.54a2.09,2.09,0,1,0,2.08-2.09A2.08,2.08,0,0,0,118.69,211.54Z"/><circle class="cls-1" cx="92.15" cy="341.65" r="1.02"/><path class="cls-1" d="M91.91,327.92a1.36,1.36,0,1,0-1.36,1.35A1.36,1.36,0,0,0,91.91,327.92Z"/><path class="cls-1" d="M91.72,314a1.65,1.65,0,1,0-1.65,1.65A1.65,1.65,0,0,0,91.72,314Z"/><path class="cls-1" d="M91.52,299.49A1.55,1.55,0,1,0,93.07,301,1.54,1.54,0,0,0,91.52,299.49Z"/><circle class="cls-1" cx="92.49" cy="286.97" r="1.16"/><path class="cls-1" d="M93,353.72a1.12,1.12,0,1,0,1.11,1.12A1.12,1.12,0,0,0,93,353.72Z"/><path class="cls-1" d="M96,367.21a.88.88,0,1,0,.88.87A.87.87,0,0,0,96,367.21Z"/><circle class="cls-1" cx="98.75" cy="380.07" r="0.63"/><circle class="cls-1" cx="103.16" cy="394.09" r="0.78"/><path class="cls-1" d="M109.28,406a.73.73,0,1,0-.73.73A.73.73,0,0,0,109.28,406Z"/><path class="cls-1" d="M114.13,417.47a1.26,1.26,0,1,0,1.26,1.26A1.25,1.25,0,0,0,114.13,417.47Z"/><circle class="cls-1" cx="120.53" cy="430.37" r="1.36"/><path class="cls-1" d="M128,440.56a1.31,1.31,0,1,0,1.31,1.31A1.31,1.31,0,0,0,128,440.56Z"/><path class="cls-1" d="M136.2,452.11a1.12,1.12,0,1,0,1.12,1.11A1.12,1.12,0,0,0,136.2,452.11Z"/><path class="cls-1" d="M145,461.61a1.12,1.12,0,1,0,1.12,1.12A1.12,1.12,0,0,0,145,461.61Z"/><path class="cls-1" d="M155.36,471.8a.88.88,0,0,0,0,1.75.88.88,0,1,0,0-1.75Z"/><path class="cls-1" d="M164.68,480.63a1.07,1.07,0,1,0,0,2.13,1.07,1.07,0,0,0,0-2.13Z"/><path class="cls-1" d="M175.4,488.59a1.12,1.12,0,1,0,1.11,1.11A1.12,1.12,0,0,0,175.4,488.59Z"/><path class="cls-1" d="M186.22,496.54a1.07,1.07,0,1,0,1.06,1.07A1.07,1.07,0,0,0,186.22,496.54Z"/><circle class="cls-1" cx="197.71" cy="504.16" r="1.21"/><path class="cls-1" d="M209.74,509.74a1.31,1.31,0,1,0,1.31,1.31A1.31,1.31,0,0,0,209.74,509.74Z"/><path class="cls-1" d="M222.89,514.49a1.36,1.36,0,1,0,1.36,1.36A1.36,1.36,0,0,0,222.89,514.49Z"/><path class="cls-1" d="M234.92,519.05a1.85,1.85,0,1,0,1.84,1.84A1.84,1.84,0,0,0,234.92,519.05Z"/><path class="cls-1" d="M248.16,522.64a1.6,1.6,0,1,0,1.61,1.6A1.6,1.6,0,0,0,248.16,522.64Z"/><circle class="cls-1" cx="261.85" cy="527.06" r="1.41"/><circle class="cls-1" cx="275.04" cy="529.48" r="1.21"/><path class="cls-1" d="M328.55,527.78a1.46,1.46,0,1,0,1.45,1.46A1.46,1.46,0,0,0,328.55,527.78Z"/><path class="cls-1" d="M342,526.13a.88.88,0,1,0,.88.88A.88.88,0,0,0,342,526.13Z"/><path class="cls-1" d="M355.33,522.84a1.16,1.16,0,1,0,1.16,1.16A1.16,1.16,0,0,0,355.33,522.84Z"/><path class="cls-1" d="M393.24,526.21a.88.88,0,1,0,.87.88A.88.88,0,0,0,393.24,526.21Z"/><circle class="cls-1" cx="405.53" cy="520.66" r="1.02"/><path class="cls-1" d="M439.68,497.69a1.39,1.39,0,1,0,1.39,1.39A1.39,1.39,0,0,0,439.68,497.69Z"/><path class="cls-1" d="M449.7,488.76a1.47,1.47,0,1,0,1.47,1.47A1.47,1.47,0,0,0,449.7,488.76Z"/><path class="cls-1" d="M460.09,480a.88.88,0,1,0,.88.88A.88.88,0,0,0,460.09,480Z"/><path class="cls-1" d="M469.6,469.89a.88.88,0,1,0,.88.88A.88.88,0,0,0,469.6,469.89Z"/><path class="cls-1" d="M492.27,438.73a.88.88,0,1,0,.88-.87A.88.88,0,0,0,492.27,438.73Z"/><circle class="cls-1" cx="506.24" cy="414.96" r="1.24"/><path class="cls-1" d="M511.36,400.85a1.39,1.39,0,1,0,1.39,1.39A1.39,1.39,0,0,0,511.36,400.85Z"/><path class="cls-1" d="M515,389a1.76,1.76,0,1,0,1.75-1.76A1.75,1.75,0,0,0,515,389Z"/><circle class="cls-1" cx="526.14" cy="336.17" r="1.35"/><path class="cls-1" d="M525.58,322.57a1.41,1.41,0,1,0,1.41-1.41A1.41,1.41,0,0,0,525.58,322.57Z"/><circle class="cls-1" cx="526.71" cy="310" r="1.47"/><path class="cls-1" d="M526.73,295.91v-.38a1.5,1.5,0,0,0-1-.42,1.47,1.47,0,1,0,1.46,1.56A.92.92,0,0,1,526.73,295.91Z"/><circle class="cls-1" cx="523.43" cy="282.58" r="1.69"/><path class="cls-1" d="M521.35,270.74a1.41,1.41,0,1,0-1.41-1.41A1.41,1.41,0,0,0,521.35,270.74Z"/><path class="cls-1" d="M513.68,245a1.19,1.19,0,1,0-1.19-1.18A1.18,1.18,0,0,0,513.68,245Z"/><circle class="cls-1" cx="509.05" cy="231.88" r="1.3"/><path class="cls-1" d="M502.9,220.43a1.24,1.24,0,1,0-1.24-1.24A1.23,1.23,0,0,0,502.9,220.43Z"/><path class="cls-1" d="M496.93,208.47a1.24,1.24,0,1,0-1.25-1.24A1.24,1.24,0,0,0,496.93,208.47Z"/><circle class="cls-1" cx="489.82" cy="195.5" r="1.47"/><circle class="cls-1" cx="481.41" cy="184.84" r="0.85"/><circle class="cls-1" cx="153.04" cy="491.44" r="0.81"/><path class="cls-1" d="M142.77,481.46a.41.41,0,1,0,0,.81.41.41,0,0,0,0-.81Z"/><circle class="cls-1" cx="133.54" cy="472.06" r="0.58"/><path class="cls-1" d="M125.36,461.15a.75.75,0,1,0,.75.75A.75.75,0,0,0,125.36,461.15Z"/><path class="cls-1" d="M116.88,450.35a1,1,0,1,0,1,1A1,1,0,0,0,116.88,450.35Z"/><circle class="cls-1" cx="109.74" cy="440.25" r="1.16"/><path class="cls-1" d="M102.84,427.83a1.22,1.22,0,1,0,1.22,1.22A1.22,1.22,0,0,0,102.84,427.83Z"/><path class="cls-1" d="M85.71,390.92a.7.7,0,1,0,.7.7A.69.69,0,0,0,85.71,390.92Z"/><circle class="cls-1" cx="91.4" cy="403.8" r="0.81"/><path class="cls-1" d="M79.74,365.38a.87.87,0,1,0,.87.87A.87.87,0,0,0,79.74,365.38Z"/><path class="cls-1" d="M77.71,350.87a.93.93,0,1,0,.92.93A.93.93,0,0,0,77.71,350.87Z"/><circle class="cls-1" cx="75.96" cy="338.45" r="1.04"/><path class="cls-1" d="M76.43,325.39a1.22,1.22,0,1,0-1.22,1.22A1.22,1.22,0,0,0,76.43,325.39Z"/><path class="cls-1" d="M75.33,312.45a1,1,0,1,0-1-1A1,1,0,0,0,75.33,312.45Z"/><circle class="cls-1" cx="76.25" cy="297.3" r="1.1"/><path class="cls-1" d="M78.52,286.22a1.28,1.28,0,1,0-1.28-1.28A1.27,1.27,0,0,0,78.52,286.22Z"/><path class="cls-1" d="M80.49,270a1.39,1.39,0,1,0,1.39,1.39A1.39,1.39,0,0,0,80.49,270Z"/><path class="cls-1" d="M85.83,258.13a1.51,1.51,0,1,0-1.51,1.51A1.5,1.5,0,0,0,85.83,258.13Z"/><path class="cls-1" d="M89.2,245.59A1.16,1.16,0,1,0,88,246.75,1.16,1.16,0,0,0,89.2,245.59Z"/><circle class="cls-1" cx="92.56" cy="232.71" r="1.16"/><path class="cls-1" d="M98.66,221.33a1,1,0,1,0-1-1A1,1,0,0,0,98.66,221.33Z"/><circle class="cls-1" cx="105.16" cy="208.74" r="1.68"/><path class="cls-1" d="M112,198.81a1.74,1.74,0,1,0-1.74-1.74A1.74,1.74,0,0,0,112,198.81Z"/><path class="cls-1" d="M119.84,188a2.09,2.09,0,1,0-2.09-2.09A2.09,2.09,0,0,0,119.84,188Z"/><path class="cls-1" d="M496.59,182.42a.91.91,0,1,0-.91-.91A.9.9,0,0,0,496.59,182.42Z"/><circle class="cls-1" cx="505.44" cy="191.61" r="1.52"/><path class="cls-1" d="M517.57,215.81a.68.68,0,1,0-.68-.68A.68.68,0,0,0,517.57,215.81Z"/><path class="cls-1" d="M529.86,240.79a1.19,1.19,0,0,0-2.37,0,1.15,1.15,0,0,0,.46.91h1.45A1.12,1.12,0,0,0,529.86,240.79Z"/><circle class="cls-1" cx="541.93" cy="306.61" r="0.9"/><circle class="cls-1" cx="541.82" cy="319.13" r="0.68"/><path class="cls-1" d="M542,334.47a.84.84,0,0,0,.85-.84.85.85,0,1,0-1.7,0A.84.84,0,0,0,542,334.47Z"/><path class="cls-1" d="M532.57,387.1a.62.62,0,1,0,1.24,0,.62.62,0,0,0-1.24,0Z"/><path class="cls-1" d="M528.62,399.5a.51.51,0,1,0,.51-.5A.51.51,0,0,0,528.62,399.5Z"/><path class="cls-1" d="M497.32,459.12a.74.74,0,1,0,.73.73A.73.73,0,0,0,497.32,459.12Z"/><path class="cls-1" d="M491,469.39a.79.79,0,0,0,0,1.58.79.79,0,0,0,0-1.58Z"/><path class="cls-1" d="M104.53,184.14a1.62,1.62,0,1,0-1.62-1.62A1.62,1.62,0,0,0,104.53,184.14Z"/><circle class="cls-1" cx="96.52" cy="192.7" r="0.81"/><path class="cls-1" d="M89.77,205.39a.72.72,0,1,0-.72-.72A.72.72,0,0,0,89.77,205.39Z"/><path class="cls-1" d="M78.33,230.6a1,1,0,0,0,0-2,1,1,0,0,0,0,2Z"/><path class="cls-1" d="M73.2,241.23a.72.72,0,1,0,.72.72A.72.72,0,0,0,73.2,241.23Z"/><path class="cls-1" d="M69.69,253.65a1,1,0,1,0,1,1A1,1,0,0,0,69.69,253.65Z"/><path class="cls-3" d="M632.2,284.63c13-6.22,85.34-36.54,85.34-36.54s-44.93,12-73.87,19.58c-11.38,3-21.2,6.23-28,5.81-11.24-.69-16.07-10.13-7.19-25.37-20.7,20.06-19.91,33.66-15.42,39.48C600,296.64,617.23,291.8,632.2,284.63Z"/><path class="cls-4" d="M304,242.56H291.35L272.3,295.91H284l3.62-11h19.65l3.52,11h12.09Zm-13.35,33.19,6.93-21,6.74,21Z"/><path class="cls-4" d="M338.71,290.88a15.1,15.1,0,0,0,3.35,3.8,12.73,12.73,0,0,0,7.87,2.35,15.33,15.33,0,0,0,12.15-5.46q4.71-5.46,4.72-15.89,0-9.89-4.83-15a15.61,15.61,0,0,0-11.78-5.1,13.19,13.19,0,0,0-8.24,2.64,16.64,16.64,0,0,0-3.57,4.06v-5.83H328.5v55h10.21Zm.73-21a7.77,7.77,0,0,1,7.79-5.32q4.72,0,6.82,3.51a17.4,17.4,0,0,1-.18,16.94,7.55,7.55,0,0,1-6.64,3.33,8.43,8.43,0,0,1-5.19-1.63q-3.69-2.78-3.69-9.66A20.07,20.07,0,0,1,339.44,269.92Z"/><path class="cls-4" d="M407.25,260.69a17,17,0,0,0-3.51-2.85,15.13,15.13,0,0,0-4.22-1.75,16.7,16.7,0,0,0-4-.5,13.18,13.18,0,0,0-8.23,2.64h0a14.55,14.55,0,0,0-2.15,2.15,18.58,18.58,0,0,0-1.42,1.91v-5.83h-9.88v55H384V290.88a15.1,15.1,0,0,0,3.35,3.8,12.73,12.73,0,0,0,7.87,2.35,15.31,15.31,0,0,0,12.15-5.46q4.72-5.46,4.72-15.89Q412.08,265.79,407.25,260.69Zm-7.18,22.73a10.68,10.68,0,0,1-.76,1.37,2.26,2.26,0,0,1-.16.26,7.55,7.55,0,0,1-6.64,3.33,8.43,8.43,0,0,1-5.19-1.63q-3.69-2.78-3.69-9.66a19.83,19.83,0,0,1,1.1-7.17,7.76,7.76,0,0,1,7.78-5.32q4.73,0,6.82,3.51a15.34,15.34,0,0,1,2.11,8.08A17.21,17.21,0,0,1,400.07,283.42Z"/><path class="cls-5" d="M404.51,296.53a1.31,1.31,0,0,0-.6-.84,1.33,1.33,0,0,0-2,1,1.64,1.64,0,0,0,0,.44,1.32,1.32,0,0,0,1.3,1,.89.89,0,0,0,.28,0A1.33,1.33,0,0,0,404.51,296.53Z"/><polygon class="cls-4" points="419.57 242.56 419.57 248.81 419.57 255.59 419.57 290.49 419.57 294.96 419.57 295.91 429.89 295.91 429.89 292.39 429.89 286.89 429.89 279.91 429.89 274.05 429.89 252.59 429.89 245.16 429.89 242.56 419.57 242.56"/><polygon class="cls-4" points="445.56 242.23 440.09 242.23 440.09 251.75 450.56 251.75 450.56 248.87 450.56 242.23 445.56 242.23"/><polygon class="cls-4" points="449.63 256.46 440.16 256.46 440.09 256.46 440.09 265.11 440.09 270.45 440.09 275.89 440.09 295.91 448.22 295.91 450.56 295.91 450.56 295.47 450.56 289.89 450.56 283.39 450.56 260.14 450.56 256.46 449.63 256.46"/><path class="cls-4" d="M481,279.08h15.58a51.49,51.49,0,0,0-.34-7.83,19.41,19.41,0,0,0-3.15-8.16,16,16,0,0,0-6.82-5.83,22.31,22.31,0,0,0-9.27-1.85,23.45,23.45,0,0,0-5.22.58,18.8,18.8,0,0,0-3.93,1.36,17.84,17.84,0,0,0-5,3.53,16.6,16.6,0,0,0-3.24,4.64,23.18,23.18,0,0,0-2.06,8.13c-.08,1-.14,1.93-.14,3a29.69,29.69,0,0,0,.74,6.82c.17.71.37,1.4.59,2.05a15,15,0,0,0,4.69,6.93l.79.58a22.1,22.1,0,0,0,3.74,2.25,21.87,21.87,0,0,0,9.37,2q9.54,0,14.84-5.75l.12-.14a14.33,14.33,0,0,0,3.37-5.45,8.51,8.51,0,0,0,.34-1.54H485.48a8,8,0,0,1-7.85,4.52,10.45,10.45,0,0,1-5.68-1.48q-3.88-2.4-4.13-8.33H481Zm-11.32-11.37a8.87,8.87,0,0,1,1.16-1.54,7.64,7.64,0,0,1,5-2.19,11.4,11.4,0,0,1,1.2-.07A9.05,9.05,0,0,1,483.1,266a8.65,8.65,0,0,1,2.75,6.24H468.07A11.72,11.72,0,0,1,469.66,267.71Z"/><path class="cls-5" d="M458.25,284.27a3.78,3.78,0,0,0,.51,1.2c-.22-.65-.42-1.34-.59-2.05A4.14,4.14,0,0,0,458.25,284.27Z"/><path class="cls-4" d="M527.22,242.63v18.82a12.61,12.61,0,0,0-4.53-4.36,12,12,0,0,0-3.07-1.2,14.35,14.35,0,0,0-3.13-.36h-.17a15.22,15.22,0,0,0-10.56,3.84,15.76,15.76,0,0,0-1.87,1.95,16.73,16.73,0,0,0-1.35,2c-2.19,3.63-3.3,8.26-3.3,13.92q0,8.76,4.72,14.35a14.66,14.66,0,0,0,11.64,5.59,14.13,14.13,0,0,0,7-1.59,14.53,14.53,0,0,0,5-5.1v5.46h10V242.63Zm-2,42.57a7.62,7.62,0,0,1-6.66,3.26,7.31,7.31,0,0,1-6.54-3.28A18.45,18.45,0,0,1,512,268a7.24,7.24,0,0,1,6.64-3.42,7.89,7.89,0,0,1,5.21,1.88q3.66,3.12,3.66,10.35A14.39,14.39,0,0,1,525.23,285.2Z"/><path class="cls-4" d="M309.61,330.15Q304.9,326,297,326H274.07v53.35h11.08V360.2h11.11q8.69,0,13.37-3.91t4.69-13.36Q314.32,334.28,309.61,330.15Zm-8.48,18.93a8.54,8.54,0,0,1-5.94,1.92h-10V335.29h10a9,9,0,0,1,5.94,1.78q2.12,1.77,2.11,5.93C303.24,345.78,302.54,347.8,301.13,349.08Z"/><path class="cls-4" d="M339.23,380.72q9.54,0,14.85-5.76a12.89,12.89,0,0,0,3.82-7.13H347.37a8,8,0,0,1-7.85,4.53,10.46,10.46,0,0,1-5.69-1.49q-3.88-2.39-4.13-8.32h28.74a50.2,50.2,0,0,0-.34-7.83,19.48,19.48,0,0,0-3.14-8.16,16.15,16.15,0,0,0-6.82-5.84,22.51,22.51,0,0,0-9.28-1.84q-8.67,0-14.11,5.47t-5.43,15.72q0,10.94,6,15.79A21.47,21.47,0,0,0,339.23,380.72Zm-6.52-31.08a8.12,8.12,0,0,1,6.15-2.26,9,9,0,0,1,6.12,2.13,8.61,8.61,0,0,1,2.75,6.23H330A10.65,10.65,0,0,1,332.71,349.64Z"/><path class="cls-4" d="M385.57,339l-.49,0a11.34,11.34,0,0,0-7.53,2.43,22.12,22.12,0,0,0-4.16,5.39v-6.87h-9.84v39.45h10.39V360.52c0-3.16.39-5.5,1.19-7q2.13-4,8.36-4.05l1.23,0c.51,0,1.09.07,1.74.15V339.06C386,339,385.7,339,385.57,339Z"/><path class="cls-4" d="M404.48,340.29V337a3.23,3.23,0,0,1,.22-1.16,3.64,3.64,0,0,1,.56-1,2,2,0,0,1,.46-.41l.2-.09a2.22,2.22,0,0,1,.41-.19l.29-.07.46-.1.38,0c.14,0,.26,0,.41,0h.22c1.36,0,2.33.09,2.91.16v-8.4l-2.17-.16c-.53,0-1.12-.06-1.78-.06q-8.57,0-10.82,3.55-2.13,2.39-2.13,8.72v2.54h-5.65v7.27h5.79v31.82h10.24V347.56h6.77v-7.27Z"/><path class="cls-5" d="M407.46,334c.2,0,.4,0,.63,0h-.22C407.72,333.93,407.6,334,407.46,334Z"/><path class="cls-5" d="M406.33,334.15a2.22,2.22,0,0,0-.41.19A2.22,2.22,0,0,1,406.33,334.15Z"/><path class="cls-5" d="M407.08,334l-.46.1Z"/><path class="cls-5" d="M405.72,334.43a2,2,0,0,0-.46.41A2,2,0,0,1,405.72,334.43Z"/><path class="cls-4" d="M450.09,344.92a13.59,13.59,0,0,0-1.4-1.53,14.73,14.73,0,0,0-1.8-1.46c-3.1-2.17-7.07-3.27-12-3.27q-10.19,0-15.17,6.26h0a22.71,22.71,0,0,0-2.9,4.72,23.46,23.46,0,0,0-2,7.81c-.06.73-.1,1.48-.1,2.25a27.73,27.73,0,0,0,.2,3.19,22.11,22.11,0,0,0,4.8,11.65q5,6.17,15.17,6.17c.39,0,.76,0,1.15-.05a23.44,23.44,0,0,0,6.9-1.21,15.61,15.61,0,0,0,7.11-4.91,24.45,24.45,0,0,0,0-29.63Zm-6,17.4a12.93,12.93,0,0,1-2.29,6.53,8,8,0,0,1-.76.87,8.35,8.35,0,0,1-6.19,2.35,9.09,9.09,0,0,1-4.53-1.09,7.82,7.82,0,0,1-2.44-2.13,10.85,10.85,0,0,1-1.73-3.58,19.76,19.76,0,0,1-.71-5.56c0-3.95.81-7,2.44-9.13a9.17,9.17,0,0,1,13.92,0,10,10,0,0,1,1,1.74,14.12,14.12,0,0,1,1.19,4.33,22.64,22.64,0,0,1,.19,3.06A24,24,0,0,1,444.13,362.32Z"/><path class="cls-4" d="M484.39,339l-.49,0a11.32,11.32,0,0,0-7.53,2.43,21.88,21.88,0,0,0-4.16,5.39v-6.87h-9.85v39.45h10.39V360.52q0-4.74,1.19-7a7.19,7.19,0,0,1,4.67-3.59,13.48,13.48,0,0,1,3.41-.45h.29l1.23,0c.5,0,1.08.07,1.73.15V339.06C484.82,339,484.52,339,484.39,339Z"/><path class="cls-4" d="M501.6,379.38V378.3a2.78,2.78,0,0,0-.48,1.08Z"/><path class="cls-4" d="M547.39,348.69a11.33,11.33,0,0,0-2.25-5.07,11.51,11.51,0,0,0-4.59-3.55,13.87,13.87,0,0,0-5.14-1,15.3,15.3,0,0,0-7.1,1.63,13.05,13.05,0,0,0-5,5.1,11.6,11.6,0,0,0-3.4-4.74,11.83,11.83,0,0,0-6.46-2l-.85,0a15.06,15.06,0,0,0-4.4.6,10.41,10.41,0,0,0-3.39,1.71,16.75,16.75,0,0,0-3.62,4.38V340h-10v39.38h10a2.78,2.78,0,0,1,.48-1.08V355.63a11.13,11.13,0,0,1,.83-4.85q1.51-2.85,5.94-2.85,3.79,0,5.1,2.85a13.33,13.33,0,0,1,.72,5.11v23.49h10.39V355.89a11.1,11.1,0,0,1,.84-4.53,5.92,5.92,0,0,1,5.9-3.54c2.46,0,4.15.91,5.06,2.75a8.11,8.11,0,0,1,.73,3.69v25.12h10.57l.07-24.87A35.11,35.11,0,0,0,547.39,348.69Z"/><path class="cls-4" d="M590.13,376.66a5.77,5.77,0,0,1-.61-2.75c0-1.78-.07-3.3-.07-4.56V351.26q0-7.14-5.06-9.71A25.19,25.19,0,0,0,572.83,339q-10,0-14.1,5.22a15.1,15.1,0,0,0-2.91,8.5h9.95a7.59,7.59,0,0,1,1.47-3.62c1-1.2,2.78-1.81,5.25-1.81a10.73,10.73,0,0,1,5,.93,3.46,3.46,0,0,1,1.7,3.34,3.11,3.11,0,0,1-2.22,2.94,16.44,16.44,0,0,1-4.12.9l-3.54.44a25.21,25.21,0,0,0-9.12,2.53q-5.64,3.25-5.65,10.53,0,5.61,3.52,8.67a13.06,13.06,0,0,0,8.9,3.06,15,15,0,0,0,7.57-1.92,21.16,21.16,0,0,0,5-3.94c.07.89.17,1.69.29,2.39a11.73,11.73,0,0,0,.65,2.24h11.22v-1.52A3.67,3.67,0,0,1,590.13,376.66Zm-11-12.63c-.08,3.45-1.06,5.83-3,7.13a10.75,10.75,0,0,1-6.23,2,5.62,5.62,0,0,1-3.62-1.18,4.58,4.58,0,0,1-1.49-3.82,4.7,4.7,0,0,1,2.44-4.38,15.7,15.7,0,0,1,4.74-1.41l2.35-.43a17.84,17.84,0,0,0,2.77-.71,11.25,11.25,0,0,0,2-1Z"/><path class="cls-4" d="M630.27,342.19a15.08,15.08,0,0,0-10-3.21,13,13,0,0,0-8,2.39,17.67,17.67,0,0,0-3.75,4.38V340h-10v39.38h10.32V358a15.36,15.36,0,0,1,1-6q1.95-4.45,7.15-4.46c2.83,0,4.75,1,5.75,3a11.06,11.06,0,0,1,.83,4.78v24h10.57V352.81C634.15,347.87,632.86,344.32,630.27,342.19Z"/><path class="cls-4" d="M660.45,347.71a6.22,6.22,0,0,1,5.4,2.39,9.07,9.07,0,0,1,1.49,4h10.57q-.87-8.43-5.6-11.77T660.16,339q-8.74,0-13.7,5.65t-5,15.8q0,9,4.49,14.64t14,5.65q9.53,0,14.38-6.77a17.24,17.24,0,0,0,3.41-8.9H667.27a9.77,9.77,0,0,1-1.85,5.06q-1.53,2-5.16,2a6.89,6.89,0,0,1-7-4.92,19.7,19.7,0,0,1-1-7,21.43,21.43,0,0,1,1-7.3Q655.22,347.71,660.45,347.71Z"/><path class="cls-4" d="M701.77,380.72q9.54,0,14.85-5.76a12.89,12.89,0,0,0,3.82-7.13H709.91a8.63,8.63,0,0,1-2.13,2.72,8.73,8.73,0,0,1-5.72,1.81,10.46,10.46,0,0,1-5.69-1.49q-3.89-2.39-4.13-8.32H721a50.2,50.2,0,0,0-.34-7.83,19.36,19.36,0,0,0-3.15-8.16,16.07,16.07,0,0,0-6.81-5.84,22.54,22.54,0,0,0-9.28-1.84q-8.67,0-14.11,5.47t-5.44,15.72q0,10.94,6,15.79A21.51,21.51,0,0,0,701.77,380.72Zm-6.53-31.08a8.16,8.16,0,0,1,6.16-2.26,9,9,0,0,1,6.12,2.13,8.61,8.61,0,0,1,2.75,6.23H692.5A10.7,10.7,0,0,1,695.24,349.64Z"/><polygon class="cls-4" points="365.05 402.5 362.95 402.5 358.08 402.5 358.08 455.85 363.33 455.85 369.16 455.85 369.16 453.37 369.16 440.7 369.16 438.61 369.16 402.5 365.05 402.5"/><path class="cls-4" d="M413.82,424.06a12.15,12.15,0,0,0-1.17-2.87,9.18,9.18,0,0,0-2.08-2.53A14.63,14.63,0,0,0,402,415.5c-.44,0-.89,0-1.35,0a14.7,14.7,0,0,0-5.44.94,10.84,10.84,0,0,0-2.6,1.45,13.72,13.72,0,0,0-2.43,2.52c-.43.56-.87,1.17-1.32,1.86v-5.76h-10v39.38h10.32V434.5a15.22,15.22,0,0,1,1-6q1.94-4.46,7.15-4.45,4.23,0,5.75,3a11,11,0,0,1,.82,4.78v24h10.57V429.29A20.12,20.12,0,0,0,413.82,424.06Z"/><path class="cls-5" d="M378.32,415.72a.9.9,0,0,0-.41.7A3.12,3.12,0,0,0,378.32,415.72Z"/><path class="cls-4" d="M455.85,418.66a15.18,15.18,0,0,0-10-3.2,13,13,0,0,0-8,2.39,17.71,17.71,0,0,0-3.75,4.38v-5.76h-10v39.38h10.32V434.5a15.4,15.4,0,0,1,1-6q1.94-4.46,7.15-4.45,4.23,0,5.75,3a11,11,0,0,1,.82,4.78v24h10.57V429.29Q459.72,421.86,455.85,418.66Z"/><path class="cls-4" d="M502.22,421.39q-5-6.25-15.17-6.26t-15.17,6.26a24.5,24.5,0,0,0,0,29.64q5,6.17,15.17,6.16T502.22,451a24.5,24.5,0,0,0,0-29.64ZM494,445.33a8.17,8.17,0,0,1-6.95,3.21l-.57,0a12.07,12.07,0,0,1-1.39-.15,7.81,7.81,0,0,1-5-3q-2.44-3.22-2.45-9.15t2.45-9.12a9.16,9.16,0,0,1,13.91,0q2.43,3.19,2.43,9.12T494,445.33Z"/><path class="cls-5" d="M471.48,420.46l0,0Z"/><polygon class="cls-4" points="538.9 416.4 530.5 445.5 522.29 416.4 510.7 416.4 524.85 455.85 535.73 455.85 549.98 416.4 538.9 416.4"/><path class="cls-4" d="M588.72,453.14a5.8,5.8,0,0,1-.61-2.75c-.05-1.79-.07-3.31-.07-4.56v-18.1q0-7.12-5.06-9.7a25.19,25.19,0,0,0-11.56-2.57q-10,0-14.1,5.21a15.13,15.13,0,0,0-2.91,8.51h10a7.55,7.55,0,0,1,1.47-3.62q1.54-1.81,5.25-1.81a10.88,10.88,0,0,1,5,.92,3.48,3.48,0,0,1,1.7,3.35,3.1,3.1,0,0,1-2.22,2.93,16.34,16.34,0,0,1-4.12.91l-3.54.43a25.41,25.41,0,0,0-9.12,2.53q-5.64,3.27-5.65,10.54,0,5.61,3.52,8.67a13.1,13.1,0,0,0,8.9,3.05,15,15,0,0,0,7.57-1.91,21.2,21.2,0,0,0,5-3.95c.07.89.17,1.69.29,2.39a11.53,11.53,0,0,0,.65,2.24h11.22v-1.52A3.73,3.73,0,0,1,588.72,453.14Zm-11-12.63c-.08,3.45-1.06,5.82-3,7.13a10.81,10.81,0,0,1-6.23,1.95,5.68,5.68,0,0,1-3.62-1.17,4.6,4.6,0,0,1-1.49-3.82,4.7,4.7,0,0,1,2.44-4.38,15.14,15.14,0,0,1,4.74-1.41l2.35-.44a18,18,0,0,0,2.77-.7,12,12,0,0,0,2-1Z"/><path class="cls-4" d="M608.7,405.76H598.5v11H593v7.35h5.5V448.4q0,3.69,1.73,5.46a6.25,6.25,0,0,0,.72.63l.27.18c.19.12.37.24.57.35s.26.12.38.18a6.46,6.46,0,0,0,.6.27l.46.16.66.2.52.13.73.15.59.09c.25,0,.52.07.8.09l.64.06.88,0,.69,0h1.48l4.89-.18v-7.71l-1,.05-1,0c-2.1,0-3.35-.2-3.76-.6s-.62-1.4-.62-3V424.11h6.41v-7.35H608.7Z"/><path class="cls-5" d="M602.17,455.2c-.12-.06-.26-.11-.38-.18C601.91,455.09,602.05,455.14,602.17,455.2Z"/><path class="cls-5" d="M605.73,456.2l-.59-.09Z"/><path class="cls-5" d="M603.23,455.63l-.46-.16Z"/><path class="cls-5" d="M601.22,454.67l-.27-.18Z"/><path class="cls-5" d="M607.17,456.35l-.64-.06Z"/><path class="cls-5" d="M608.74,456.41l-.69,0Z"/><path class="cls-5" d="M604.41,456l-.52-.13Z"/><rect class="cls-4" x="621.88" y="416.4" width="10.46" height="39.45"/><rect class="cls-4" x="621.88" y="402.18" width="10.46" height="9.52"/><path class="cls-4" d="M660.07,415.13q-10.17,0-15.17,6.26a24.5,24.5,0,0,0,0,29.64q5,6.17,15.17,6.16T675.23,451a24.46,24.46,0,0,0,0-29.64Q670.23,415.14,660.07,415.13Zm6.91,30.2a9.15,9.15,0,0,1-13.92,0q-2.44-3.22-2.44-9.15t2.44-9.12a9.17,9.17,0,0,1,13.92,0c1.62,2.13,2.42,5.17,2.42,9.12S668.6,443.18,667,445.33Z"/><path class="cls-4" d="M719.43,418.66a15.18,15.18,0,0,0-10-3.2,13,13,0,0,0-8,2.39,17.51,17.51,0,0,0-3.75,4.38v-5.76h-10v39.38H698V434.5a15.4,15.4,0,0,1,1-6q1.93-4.46,7.15-4.45,4.23,0,5.75,3a11,11,0,0,1,.82,4.78v24H723.3V429.29Q723.3,421.86,719.43,418.66Z"/></svg>